<svg xmlns="http://www.w3.org/2000/svg" width="206" height="49" fill="none" viewBox="0 0 206 49">
  <rect width="204.305" height="48.169" x=".415" y=".415" fill="#fff" rx="6.229"/>
  <rect width="204.305" height="48.169" x=".415" y=".415" stroke="#CEDFFF" stroke-width=".831" rx="6.229"/>
  <path fill="#FED26C" d="M14.139 10.766a.415.415 0 0 1 .79 0l1.003 3.089a.415.415 0 0 0 .395.287h3.248c.402 0 .57.514.244.75l-2.627 1.91a.415.415 0 0 0-.151.464l1.003 3.089a.415.415 0 0 1-.639.464l-2.627-1.909a.415.415 0 0 0-.488 0l-2.627 1.909a.415.415 0 0 1-.64-.464l1.004-3.089a.415.415 0 0 0-.15-.464l-2.628-1.91a.415.415 0 0 1 .244-.75h3.248c.18 0 .339-.116.394-.287l1.004-3.089Zm16.61 0a.415.415 0 0 1 .79 0l1.003 3.089a.415.415 0 0 0 .395.287h3.248c.402 0 .57.514.244.75l-2.627 1.91a.415.415 0 0 0-.151.464l1.003 3.089a.415.415 0 0 1-.639.464l-2.627-1.909a.415.415 0 0 0-.488 0l-2.627 1.909a.415.415 0 0 1-.64-.464l1.004-3.089a.415.415 0 0 0-.15-.464l-2.628-1.91a.415.415 0 0 1 .244-.75h3.248c.18 0 .339-.116.395-.287l1.003-3.089Zm16.611 0a.415.415 0 0 1 .79 0l1.003 3.089a.415.415 0 0 0 .395.287h3.247c.402 0 .57.514.244.75l-2.627 1.91a.415.415 0 0 0-.151.464l1.003 3.089a.415.415 0 0 1-.639.464l-2.627-1.909a.415.415 0 0 0-.488 0l-2.627 1.909a.415.415 0 0 1-.64-.464l1.004-3.089a.415.415 0 0 0-.15-.464l-2.628-1.91a.415.415 0 0 1 .244-.75h3.248c.18 0 .34-.116.395-.287l1.003-3.089Zm16.61 0a.415.415 0 0 1 .79 0l1.003 3.089a.415.415 0 0 0 .395.287h3.247c.402 0 .57.514.244.75l-2.627 1.91a.415.415 0 0 0-.15.464l1.003 3.089a.415.415 0 0 1-.64.464l-2.627-1.909a.415.415 0 0 0-.488 0l-2.627 1.909a.415.415 0 0 1-.64-.464l1.005-3.089a.416.416 0 0 0-.151-.464l-2.628-1.91a.415.415 0 0 1 .244-.75h3.248c.18 0 .34-.116.395-.287l1.003-3.089Z"/>
  <path fill="#D9D9D9" d="M80.58 10.766a.415.415 0 0 1 .79 0l1.003 3.089a.415.415 0 0 0 .395.287h3.247c.403 0 .57.514.245.75l-2.628 1.91a.415.415 0 0 0-.15.464l1.003 3.089a.415.415 0 0 1-.64.464L81.22 18.91a.415.415 0 0 0-.489 0l-2.627 1.909a.415.415 0 0 1-.639-.464l1.004-3.089a.415.415 0 0 0-.151-.464l-2.627-1.91a.415.415 0 0 1 .244-.75h3.247c.18 0 .34-.116.395-.287l1.004-3.089Z"/>
  <path fill="#1B3DBC" d="M8.373 36.45v-.712l1.887-1.85c.18-.182.331-.344.451-.486.12-.142.21-.279.271-.411.06-.133.09-.275.09-.425a.802.802 0 0 0-.116-.44.776.776 0 0 0-.322-.287 1.035 1.035 0 0 0-.464-.101.956.956 0 0 0-.47.111.767.767 0 0 0-.313.31.998.998 0 0 0-.109.481h-.937c0-.345.079-.645.236-.9.158-.254.374-.452.65-.591.278-.14.597-.21.956-.21.365 0 .685.068.961.204.276.136.49.323.642.56.154.237.231.508.231.813 0 .203-.039.403-.117.6a2.547 2.547 0 0 1-.411.652c-.195.24-.468.529-.82.868l-.937.953v.037H12.1v.823H8.373Zm6.652.103c-.438 0-.813-.11-1.126-.332-.311-.223-.551-.544-.72-.964-.165-.42-.249-.928-.249-1.52.002-.593.086-1.098.252-1.514.169-.417.408-.736.72-.955.313-.22.687-.33 1.123-.33.435 0 .81.11 1.122.33.314.22.553.538.72.956.168.417.252.922.252 1.513 0 .594-.084 1.102-.252 1.523-.167.42-.406.74-.72.96-.311.222-.685.333-1.122.333Zm0-.831c.34 0 .607-.167.804-.502.198-.336.297-.83.297-1.483 0-.432-.045-.795-.135-1.089-.09-.294-.218-.515-.383-.663a.837.837 0 0 0-.583-.226c-.338 0-.606.168-.802.504-.196.335-.296.826-.297 1.474-.002.433.041.798.13 1.093.09.296.217.519.382.669.165.149.36.223.587.223Zm4.728 1.407v-6.795h.435v6.795h-.435Zm1.255-4.621a.725.725 0 0 0-.313-.542c-.182-.13-.42-.194-.712-.194-.205 0-.38.031-.528.093a.782.782 0 0 0-.337.252.613.613 0 0 0-.042.659.702.702 0 0 0 .215.212c.09.057.19.104.3.143.11.04.22.072.331.099l.51.127c.205.048.403.112.592.194.191.081.362.184.512.308.152.123.273.273.361.448.089.175.133.38.133.616 0 .319-.081.599-.244.841-.163.241-.398.43-.706.566-.306.134-.677.202-1.112.202-.423 0-.79-.066-1.102-.197a1.64 1.64 0 0 1-.727-.573c-.174-.252-.267-.558-.282-.919h.97a.82.82 0 0 0 .174.473.93.93 0 0 0 .401.281c.167.062.352.093.558.093.214 0 .401-.032.562-.096a.912.912 0 0 0 .383-.27.654.654 0 0 0 .14-.409.52.52 0 0 0-.125-.35.914.914 0 0 0-.342-.234 3.296 3.296 0 0 0-.51-.17l-.618-.16c-.448-.114-.802-.288-1.062-.522-.258-.235-.387-.548-.387-.937 0-.32.086-.6.26-.841a1.72 1.72 0 0 1 .714-.56c.3-.135.641-.202 1.022-.202.386 0 .724.067 1.014.202.292.132.52.317.687.554.167.236.252.506.258.813h-.948Zm4.076-1.75-1.751 6.509h-.842l1.752-6.509h.841Zm1.575 3.302v2.39h-.961v-5.437h.94v2.052h.047a1.18 1.18 0 0 1 .443-.544c.202-.135.459-.202.77-.202.283 0 .53.06.74.178a1.2 1.2 0 0 1 .489.52c.117.228.175.507.175.836v2.596h-.96v-2.447c0-.274-.071-.488-.213-.64-.14-.154-.336-.23-.59-.23a.928.928 0 0 0-.456.11.78.78 0 0 0-.313.317 1.045 1.045 0 0 0-.111.501Z"/>
  <path fill="#7179CE" d="M106.145 8.425V9.83l-.489.26V8.684l.489-.259Zm-.239 3.339a.738.738 0 0 1-.449.14.717.717 0 0 1-.498-.18.605.605 0 0 1-.19-.458v-.31l.489-.268v.548c0 .132.066.199.199.199s.199-.056.199-.17v-.438l.489-.269v.708c0 .113.07.169.209.169.133 0 .199-.067.199-.2v-.508l.479-.269v.808a.602.602 0 0 1-.19.458.68.68 0 0 1-.488.18.733.733 0 0 1-.448-.14Zm5.003.817.857-.458v6.428h-.857v-5.97Zm-2.063 4.076V13.24l.857-.459v3.887c0 .598-.176 1.067-.528 1.405-.326.32-.761.479-1.306.479h-.688c-.564 0-1.01-.183-1.335-.548-.326.365-.781.548-1.366.548h-.697c-.665 0-1.146-.236-1.445-.708a1.69 1.69 0 0 1-1.216.479c-.585 0-1.05-.22-1.395-.658-.286-.372-.429-.827-.429-1.366 0-.644.196-1.166.588-1.564a1.638 1.638 0 0 1 1.216-.508c.365 0 .681.096.947.288v-.428l.867-.459v3.12c0 .664.322.997.967.997h.528c.691 0 1.036-.363 1.036-1.087V13.24l.857-.459v3.967c0 .664.326.997.977.997h.518c.698 0 1.047-.363 1.047-1.087Zm-6.797-1.226a1.195 1.195 0 0 0-.907-.408.87.87 0 0 0-.718.359c-.186.239-.279.548-.279.926 0 .386.093.695.279.927a.889.889 0 0 0 .728.35c.372 0 .677-.157.917-.47a3.737 3.737 0 0 1-.02-.338V15.43Zm10.714 3.12.419-.807h1.774c.266 0 .452-.067.558-.2.113-.133.169-.362.169-.688 0-.883-.408-1.548-1.226-1.993l.439-.737c1.043.611 1.588 1.455 1.634 2.531.014.386.1.665.26.837.166.166.428.25.787.25h.588v.807h-.658c-.551 0-.983-.176-1.295-.528-.22.352-.588.528-1.107.528h-2.342Zm8.277-.807h.657v.807h-.757c-.551 0-.987-.176-1.306-.528-.318.352-.754.528-1.305.528h-.758v-.807h.658c.651 0 .977-.333.977-.997v-2.063l.857-.458v2.52c0 .665.326.998.977.998Zm-1.465 1.803c.319 0 .478.163.478.489 0 .332-.159.498-.478.498-.326 0-.489-.166-.489-.498 0-.326.163-.489.489-.489Zm6.891-1.803v.807h-5.371v-.807h1.724c-.326-.419-.489-.934-.489-1.545 0-.678.233-1.216.698-1.615a2.027 2.027 0 0 1 1.316-.488c.704 0 1.252.282 1.644.847v.807c-.425-.571-.94-.857-1.545-.857-.378 0-.684.123-.917.369-.226.24-.338.561-.338.967 0 .458.136.827.408 1.106.279.272.648.409 1.106.409h1.764Zm2.92.807.419-.807h1.774c.266 0 .452-.067.558-.2.113-.133.169-.362.169-.688 0-.883-.408-1.548-1.225-1.993l.438-.737c1.043.611 1.588 1.455 1.635 2.531.013.386.099.665.259.837.166.166.428.25.787.25h.588v.807h-.658c-.551 0-.983-.176-1.295-.528-.22.352-.588.528-1.107.528h-2.342Zm11.227-.807h.668v.807h-.758c-.551 0-.987-.176-1.305-.528-.339.485-.834.727-1.485.727-.652 0-1.143-.24-1.475-.718-.313.346-.748.519-1.306.519h-.757v-.807h.657c.652 0 .977-.333.977-.997v-.329c0-.77.189-1.362.568-1.774.332-.365.778-.548 1.336-.548.637 0 1.129.236 1.475.707.292.406.438.944.438 1.615v.329c0 .664.322.997.967.997Zm-2.88.199a.88.88 0 0 0 .767-.409c.193-.272.289-.648.289-1.126 0-1.01-.352-1.515-1.056-1.515-.698 0-1.047.505-1.047 1.515 0 1.023.349 1.535 1.047 1.535Zm9.451-.2h.648v.808h-.658c-.538 0-.97-.06-1.295-.18-.326-.126-.628-.345-.907-.657-.837.558-1.814.837-2.93.837h-1.356v-.807h1.366c1.348 0 2.415-.446 3.199-1.336-.552-1.017-1.223-1.525-2.013-1.525-.539 0-1.093.286-1.665.857v-.797c.558-.565 1.15-.847 1.774-.847.512 0 1.007.186 1.485.558.479.366.9.89 1.266 1.575v.438c-.206.26-.402.469-.588.628.359.299.917.448 1.674.448Zm1.687-1.893c0-.578.172-1.027.518-1.345.306-.273.704-.41 1.196-.41.631 0 1.116.233 1.455.699.292.392.438.903.438 1.534 0 .718-.186 1.28-.558 1.685-.325.358-.75.538-1.275.538-.598 0-1.053-.166-1.366-.498-.319.332-.747.498-1.285.498h-.758v-.807h.658c.651 0 .977-.333.977-.997v-.897Zm.857.967c0 .618.302.927.907.927a.831.831 0 0 0 .727-.38c.18-.252.269-.604.269-1.056 0-.445-.093-.79-.279-1.036a.901.901 0 0 0-.767-.379c-.572 0-.857.332-.857.997v.927Z"/>
  <path fill="#1B3DBC" d="M114.282 34.986h.254v.463h-.322c-.448 0-.784-.152-1.009-.456-.224.304-.563.456-1.016.456h-2.669c-.368 0-.662-.114-.882-.344-.219-.234-.329-.548-.329-.941v-.98l.501-.261v1.18c0 .589.274.883.822.883h2.504c.544 0 .815-.294.815-.882V30.89l.501-.262v3.506c0 .568.277.852.83.852Zm-3.431-3.102c.204 0 .366.055.486.164a.57.57 0 0 1 .179.441c0 .165-.05.297-.149.396a.517.517 0 0 1-.382.143h-.927l.143-.262h.762c.189 0 .284-.095.284-.284 0-.23-.145-.344-.434-.344a.758.758 0 0 0-.381.09v-.255l.613-.687h.314l-.516.598h.008Zm5.943 3.102h.261v.463h-.321c-.449 0-.785-.152-1.009-.456-.234.304-.573.456-1.017.456h-.321v-.463h.262c.548 0 .822-.284.822-.852v-1.622l.501-.262v1.884c0 .568.274.852.822.852Zm-1.697 1.248c.199 0 .299.102.299.306 0 .205-.1.307-.299.307-.199 0-.299-.102-.299-.306 0-.205.1-.307.299-.307Zm.852 0c.199 0 .299.102.299.306 0 .205-.1.307-.299.307-.199 0-.299-.102-.299-.306 0-.205.1-.307.299-.307Zm3.228-4.956c-.204 0-.306-.104-.306-.313 0-.2.102-.3.306-.3.195 0 .292.1.292.3 0 .209-.097.313-.292.313Zm-2.272 4.171v-.463h1.271c-.274-.274-.411-.668-.411-1.181 0-.538.139-.954.418-1.248.245-.265.568-.397.972-.397.414 0 .733.13.957.39.194.223.291.522.291.896v.725c-.005.404-.127.72-.366.95-.219.219-.518.328-.897.328h-2.235Zm3.005-1.958c0-.583-.252-.875-.755-.875a.783.783 0 0 0-.658.314c-.154.205-.231.494-.231.867 0 .364.074.653.224.867a.72.72 0 0 0 .613.322c.538 0 .807-.28.807-.837v-.658Zm1.765 1.958v-4.56l.5-.26v4.82h-.5Zm4.144-.463h.262v.463h-.322c-.308 0-.565-.075-.769-.224-.04.827-.374 1.35-1.002 1.57a1.549 1.549 0 0 1-.508.082 1.79 1.79 0 0 1-.837-.21v-.44c.254.14.513.209.777.209.209 0 .394-.047.553-.142.349-.21.523-.6.523-1.174v-2.608l.494-.262v.008l.007-.008v1.884c0 .568.274.852.822.852Zm.116.463v-.463h.837c1.086 0 1.933-.369 2.541-1.106-.443-.848-.979-1.271-1.607-1.271-.429 0-.847.217-1.256.65v-.493c.409-.404.835-.606 1.278-.606h.015c.783 0 1.46.529 2.033 1.585v.306c-.727.932-1.731 1.398-3.012 1.398h-.829Zm1.973 1.398c-.204 0-.307-.105-.307-.314 0-.2.103-.299.307-.299.194 0 .291.1.291.299 0 .21-.097.314-.291.314Zm8.543-1.861h.254v.463h-.321c-.444 0-.778-.15-1.002-.448-.229.294-.568.443-1.017.448h-.949c-.548 0-.822.284-.822.852v1.241l-.501.262v-1.518c0-.413.122-.737.366-.971.22-.215.511-.324.875-.33-.234-.298-.351-.692-.351-1.18 0-.538.139-.954.418-1.248.244-.265.568-.397.972-.397.414 0 .732.13.957.39.194.223.291.522.291.896v.688c0 .568.277.852.83.852Zm-1.331-.822v-.673c0-.583-.249-.875-.747-.875-.284 0-.506.105-.665.314-.155.21-.232.499-.232.867 0 .374.075.666.224.875a.72.72 0 0 0 .621.314c.533 0 .799-.274.799-.822Zm6.137.822h.254v.463h-.322c-.453 0-.792-.157-1.016-.47-.249.413-.628.62-1.136.62-.514 0-.892-.205-1.136-.613-.23.309-.571.463-1.024.463h-.322v-.463h.262c.548 0 .822-.284.822-.852v-.254c0-.574.14-1.012.419-1.316.244-.27.57-.404.979-.404.468 0 .824.175 1.069.524.214.299.321.697.321 1.196v.254c0 .568.277.852.83.852Zm-2.22.15a.756.756 0 0 0 .65-.337c.159-.23.239-.538.239-.927 0-.837-.296-1.256-.889-1.256-.598 0-.897.419-.897 1.256 0 .842.299 1.263.897 1.263Zm9.796-.15h.261v.463h-.321c-.449 0-.785-.152-1.009-.456-.224.304-.563.456-1.017.456h-3.042c-.448 0-.785-.152-1.009-.456-.234.304-.573.456-1.016.456h-.322v-.463h.262c.548 0 .822-.284.822-.852v-1.077l.501-.261v1.338c0 .468.182.742.545.822.185-.768.506-1.41.965-1.928.513-.579 1.116-.868 1.808-.868.559 0 1.002.192 1.331.576.279.329.419.735.419 1.218v.195c0 .558.274.837.822.837Zm-2.123 0c.533 0 .8-.294.8-.882v-.15c0-.418-.132-.755-.396-1.009a1.161 1.161 0 0 0-.845-.329c-.583 0-1.101.274-1.555.823-.344.418-.603.934-.777 1.547h2.773Zm3.316-1.54c0-.423.127-.752.381-.987.22-.199.509-.299.867-.299.464 0 .82.17 1.069.509.214.289.322.667.322 1.136 0 .533-.137.95-.412 1.248-.239.264-.55.396-.934.396-.468 0-.817-.15-1.046-.448-.225.299-.561.448-1.009.448h-.322v-.463h.262c.548 0 .822-.284.822-.852v-.688Zm.501.718c0 .548.269.822.807.822a.713.713 0 0 0 .613-.314c.15-.21.224-.5.224-.875 0-.368-.079-.657-.239-.867-.154-.209-.374-.314-.658-.314-.498 0-.747.292-.747.875v.673Z"/>
  <circle cx="180.22" cy="24.5" r="17.025" fill="#D9D9D9"/>
</svg>
