<svg xmlns="http://www.w3.org/2000/svg" width="215" height="52" fill="none" viewBox="0 0 215 52">
  <rect width="214.13" height="50.486" x=".435" y=".435" fill="#fff" rx="6.528"/>
  <rect width="214.13" height="50.486" x=".435" y=".435" stroke="#CEDFFF" stroke-width=".87" rx="6.528"/>
  <path fill="#FED26C" d="M14.819 11.284a.435.435 0 0 1 .828 0l1.051 3.237c.059.18.226.301.414.301h3.404c.422 0 .597.54.256.787l-2.754 2a.435.435 0 0 0-.158.487l1.052 3.238a.435.435 0 0 1-.67.486l-2.754-2a.435.435 0 0 0-.511 0l-2.754 2a.435.435 0 0 1-.67-.486l1.052-3.238a.435.435 0 0 0-.158-.486l-2.753-2a.435.435 0 0 1 .255-.788h3.404a.435.435 0 0 0 .414-.3l1.052-3.238Zm17.409 0a.435.435 0 0 1 .828 0l1.051 3.237c.059.18.226.301.414.301h3.404c.422 0 .597.54.256.787l-2.754 2a.435.435 0 0 0-.158.487l1.052 3.238a.435.435 0 0 1-.67.486l-2.754-2a.435.435 0 0 0-.511 0l-2.754 2a.435.435 0 0 1-.67-.486l1.052-3.238a.435.435 0 0 0-.158-.486l-2.753-2a.435.435 0 0 1 .255-.788h3.404a.435.435 0 0 0 .414-.3l1.052-3.238Zm17.409 0a.435.435 0 0 1 .828 0l1.051 3.237c.059.18.226.301.414.301h3.404c.421 0 .597.54.256.787l-2.754 2a.435.435 0 0 0-.158.487l1.052 3.238a.435.435 0 0 1-.67.486l-2.754-2a.435.435 0 0 0-.511 0l-2.754 2a.435.435 0 0 1-.67-.486l1.052-3.238a.435.435 0 0 0-.158-.486l-2.754-2a.435.435 0 0 1 .256-.788h3.404a.435.435 0 0 0 .414-.3l1.052-3.238Zm17.409 0a.435.435 0 0 1 .827 0l1.052 3.237c.058.18.225.301.414.301h3.404c.421 0 .597.54.256.787l-2.754 2a.435.435 0 0 0-.158.487l1.052 3.238a.435.435 0 0 1-.67.486l-2.754-2a.435.435 0 0 0-.511 0l-2.754 2a.435.435 0 0 1-.67-.486l1.052-3.238a.435.435 0 0 0-.158-.486l-2.754-2a.435.435 0 0 1 .256-.788h3.404a.435.435 0 0 0 .414-.3l1.052-3.238Zm17.408 0a.435.435 0 0 1 .828 0l1.052 3.237c.058.18.225.301.414.301h3.404c.421 0 .597.54.255.787l-2.753 2a.435.435 0 0 0-.158.487l1.052 3.238a.435.435 0 0 1-.67.486l-2.754-2a.435.435 0 0 0-.511 0l-2.754 2a.435.435 0 0 1-.67-.486l1.052-3.238a.435.435 0 0 0-.158-.486l-2.754-2a.435.435 0 0 1 .256-.788h3.404a.435.435 0 0 0 .414-.3l1.051-3.238Z"/>
  <path fill="#1B3DBC" d="M8.673 37.289v-.82l2.417-3.82h.684v1.168h-.417L9.73 36.396v.044h3.374v.849H8.673Zm2.717 1.057V37.04l.012-.368V32.65h.973v5.697h-.985Zm4.709.109c-.458 0-.851-.116-1.18-.348-.326-.234-.577-.57-.754-1.01-.174-.441-.261-.973-.261-1.594.002-.621.09-1.15.264-1.586.177-.437.428-.771.754-1.001.329-.23.72-.345 1.177-.345.456 0 .849.115 1.177.345.328.23.58.564.754 1.001.176.438.264.967.264 1.586 0 .623-.088 1.155-.264 1.597-.175.44-.426.775-.754 1.007-.327.232-.719.348-1.177.348Zm0-.871c.356 0 .637-.175.843-.526.208-.352.311-.87.311-1.555 0-.453-.047-.833-.141-1.14-.095-.309-.228-.54-.401-.696a.877.877 0 0 0-.612-.236c-.354 0-.634.176-.84.528-.206.35-.31.865-.312 1.544-.002.454.044.837.137 1.146.094.31.228.544.4.701a.886.886 0 0 0 .615.234Zm4.955 1.474v-7.122h.457v7.122h-.457Zm1.316-4.843a.759.759 0 0 0-.328-.568c-.191-.135-.44-.203-.746-.203-.215 0-.4.033-.553.098a.82.82 0 0 0-.353.264.642.642 0 0 0-.045.69c.056.087.13.161.225.222.095.06.2.11.315.15.115.041.23.076.347.104l.535.133c.215.05.422.118.62.203.2.086.38.193.537.323.16.13.285.286.378.47.093.184.14.399.14.646 0 .333-.086.627-.257.881-.17.253-.417.45-.74.593-.32.141-.709.211-1.165.211-.444 0-.828-.068-1.155-.205a1.72 1.72 0 0 1-.762-.601c-.182-.264-.28-.584-.295-.963h1.015a.863.863 0 0 0 .184.495c.108.132.248.23.42.295.174.065.37.097.584.097.225 0 .421-.033.59-.1a.955.955 0 0 0 .4-.283.685.685 0 0 0 .148-.429.545.545 0 0 0-.13-.367.958.958 0 0 0-.36-.245 3.464 3.464 0 0 0-.534-.178l-.648-.167c-.469-.12-.84-.303-1.113-.548-.27-.246-.406-.574-.406-.982 0-.335.091-.63.273-.882a1.8 1.8 0 0 1 .748-.587 2.597 2.597 0 0 1 1.071-.211c.405 0 .759.07 1.063.211.306.14.546.333.72.582.175.246.265.53.27.851h-.993Zm4.273-1.833-1.837 6.821h-.881l1.836-6.821h.882Zm1.65 3.46v2.504h-1.008V32.65h.985v2.15h.05c.1-.24.255-.431.465-.57.211-.141.48-.212.806-.212.297 0 .556.063.777.187.22.124.391.306.512.545.122.24.183.532.183.876v2.721h-1.007v-2.565c0-.287-.074-.51-.222-.67-.147-.162-.353-.242-.618-.242a.972.972 0 0 0-.479.117.818.818 0 0 0-.328.33c-.078.145-.117.32-.117.526Z"/>
  <path fill="#7179CE" d="M128.132 18.164h.48v.846h-.585c-.585 0-1.041-.18-1.368-.543-.328.362-.784.543-1.369.543h-3.729c-.564 0-1.006-.188-1.326-.564-.279-.327-.418-.755-.418-1.285v-1.264l.898-.48v1.66c0 .725.338 1.087 1.014 1.087h3.467c.676 0 1.014-.362 1.014-1.086v-2.12l.898-.481v2.643c0 .696.341 1.044 1.024 1.044Zm-5.046 1.89c.335 0 .502.171.502.513 0 .348-.167.522-.502.522-.341 0-.511-.174-.511-.522 0-.342.17-.512.511-.512Zm8.538-1.89h.689v.846h-.794c-.578 0-1.034-.184-1.368-.553-.334.369-.79.553-1.368.553h-.794v-.846h.689c.683 0 1.024-.348 1.024-1.044v-2.163l.898-.48v2.643c0 .696.341 1.044 1.024 1.044Zm-2.497 1.89c.335 0 .502.175.502.523 0 .341-.167.512-.502.512-.341 0-.511-.17-.511-.512 0-.348.17-.522.511-.522Zm1.327 0c.334 0 .501.175.501.523 0 .341-.167.512-.501.512-.341 0-.512-.17-.512-.512 0-.348.171-.522.512-.522Zm4.862-1.89h.69v.846h-.794c-.578 0-1.034-.184-1.368-.553-.335.369-.791.553-1.369.553h-.794v-.846h.69c.682 0 1.024-.348 1.024-1.044v-2.163l.898-.48v2.643c0 .696.341 1.044 1.023 1.044Zm-1.535 1.89c.334 0 .501.171.501.513 0 .348-.167.522-.501.522-.341 0-.512-.174-.512-.522 0-.342.171-.512.512-.512Zm1.593-1.044v-.846h1.431c1.414 0 2.531-.466 3.353-1.4-.578-1.065-1.281-1.598-2.11-1.598-.564 0-1.145.3-1.744.899v-.836c.585-.592 1.204-.888 1.859-.888.536 0 1.055.195 1.556.585.502.383.944.933 1.327 1.65v.46c-1.024 1.316-2.441 1.974-4.251 1.974h-1.421Zm11.395 0c-.606 0-1.073-.195-1.4-.585-.279-.334-.418-.759-.418-1.274v-4.397l.898-.481v4.847c0 .696.342 1.044 1.024 1.044h.689v.846h-.793Zm2.147-5.797c-.341 0-.512-.174-.512-.522 0-.341.171-.512.512-.512.334 0 .501.17.501.512 0 .348-.167.522-.501.522Zm1.65 4.951h.69v.846h-.794c-.578 0-1.034-.184-1.369-.553-.334.369-.79.553-1.368.553h-.794v-.846h.69c.682 0 1.023-.348 1.023-1.044v-2.163l.899-.48v2.643c0 .696.341 1.044 1.023 1.044Zm3.693 0h.689v.846h-.794c-.578 0-1.034-.184-1.368-.553-.334.369-.79.553-1.368.553h-.794v-.846h.689c.683 0 1.024-.348 1.024-1.044v-2.163l.898-.48v2.643c0 .696.341 1.044 1.024 1.044Zm-2.497 1.89c.335 0 .502.175.502.523 0 .341-.167.512-.502.512-.341 0-.511-.17-.511-.512 0-.348.17-.522.511-.522Zm1.327 0c.334 0 .501.175.501.523 0 .341-.167.512-.501.512-.341 0-.512-.17-.512-.512 0-.348.171-.522.512-.522Zm2.941-3.874c0-.606.181-1.076.543-1.41.32-.286.738-.429 1.253-.429.662 0 1.17.244 1.525.731.307.411.46.947.46 1.609 0 .752-.195 1.34-.585 1.765-.341.376-.787.564-1.337.564-.627 0-1.104-.174-1.431-.522-.334.348-.784.522-1.348.522h-.794v-.846h.69c.682 0 1.024-.348 1.024-1.044v-.94Zm.898 1.013c0 .647.317.971.95.971a.872.872 0 0 0 .763-.397c.188-.264.282-.633.282-1.107 0-.466-.098-.829-.293-1.086a.944.944 0 0 0-.804-.397c-.599 0-.898.348-.898 1.044v.972Z"/>
  <path fill="#1B3DBC" d="M118.949 36.346v-4.959h2.914v.494h-2.334v1.645h1.966v.493h-1.966v2.327h-.58Zm4.479-5.053v5.053h-.525v-4.77l.525-.283Zm4.086 1.497v3.556h-.407l-.047-.407-.024.008a1.553 1.553 0 0 1-1.159.493c-.381 0-.682-.133-.901-.4-.219-.27-.329-.644-.329-1.12v-2.13h.525v2.036c0 .768.287 1.152.862 1.152.177 0 .355-.044.532-.133.183-.089.327-.204.431-.345v-2.71h.517Zm2.009.43-.008 2.225c0 .382.155.572.463.572.172 0 .342-.044.509-.133l.188.29a1.394 1.394 0 0 1-.807.266c-.277 0-.491-.086-.642-.258-.152-.173-.228-.413-.228-.721v-2.24h-.54v-.431h.548v-.776l.517-.266v1.042h1.089v.43h-1.089Zm2.877 0-.008 2.225c0 .382.154.572.462.572.173 0 .342-.044.509-.133l.188.29a1.389 1.389 0 0 1-.806.266c-.277 0-.491-.086-.643-.258-.151-.173-.227-.413-.227-.721v-2.24h-.541v-.431h.549v-.776l.517-.266v1.042h1.089v.43H132.4Zm4.907 1.528h-2.538c.021.381.151.687.392.917.245.23.561.344.948.344.323 0 .639-.096.948-.29l.18.314c-.345.271-.76.407-1.246.407-.564 0-1.013-.185-1.347-.556-.308-.334-.463-.768-.463-1.3 0-.554.165-1.016.494-1.387a1.422 1.422 0 0 1 1.105-.502c.527 0 .929.215 1.206.643.214.334.321.747.321 1.238v.172Zm-2.546-.423h2.006c-.016-.381-.11-.679-.282-.893-.167-.214-.4-.321-.698-.321a.903.903 0 0 0-.712.337c-.188.224-.293.517-.314.877Zm5.853-1.23-.431.298a.85.85 0 0 0-.572-.235c-.297 0-.561.154-.791.462v2.726h-.525V32.79h.447l.047.376h.015c.309-.314.625-.47.948-.47.382 0 .669.133.862.4Zm3.751 2.875c0 .95-.35 1.546-1.049 1.786a1.632 1.632 0 0 1-.533.087c-.303 0-.596-.074-.878-.22v-.462c.267.146.538.22.815.22.22 0 .413-.05.58-.15.365-.219.548-.629.548-1.23v-2.734l.517-.274v2.977Zm4.846-.11v.486h-.83a1.411 1.411 0 0 1-.337.909 1.497 1.497 0 0 1-.838.525 1.457 1.457 0 0 1-.408.055c-.303 0-.598-.074-.885-.22v-.462c.271.146.54.22.807.22.214 0 .402-.048.564-.142.162-.083.298-.211.407-.383a.907.907 0 0 0 .165-.502l-.666-.023c-.58-.026-1.013-.21-1.301-.549-.235-.287-.352-.67-.352-1.151 0-.564.146-1 .439-1.309.261-.276.611-.415 1.049-.415.455 0 .802.136 1.042.408.209.235.314.548.314.94v1.614h.83Zm-1.355-1.559c0-.616-.277-.924-.831-.924-.308 0-.548.11-.72.33-.168.213-.251.516-.251.908 0 .778.384 1.185 1.152 1.222.229.016.446.023.65.023v-1.559Zm8.402 1.56v.485h-.337c-.438 0-.778-.14-1.018-.423-.188.282-.491.423-.909.423h-4.943v-.485h1.324v-4.294l.486-.274v3.29c.611-1.122 1.42-1.684 2.428-1.684.585 0 1.05.201 1.395.603.292.345.438.77.438 1.277v.204c0 .585.29.878.87.878h.266Zm-1.661-1.082c0-.438-.138-.79-.415-1.057a1.215 1.215 0 0 0-.885-.345c-.611 0-1.154.295-1.63.885-.36.444-.626.977-.799 1.599h3.071c.251 0 .423-.058.517-.173.094-.12.141-.337.141-.65v-.259Zm2.643-.532c0-.444.134-.789.4-1.034.23-.21.533-.314.909-.314.485 0 .859.178 1.12.533.225.303.337.7.337 1.19 0 .56-.144.996-.431 1.309-.251.277-.577.415-.979.415-.491 0-.857-.156-1.097-.47-.235.314-.588.47-1.058.47h-.336v-.485h.274c.574 0 .861-.298.861-.894v-.72Zm.525.752c0 .574.282.861.846.861a.75.75 0 0 0 .643-.328c.156-.22.235-.525.235-.917 0-.387-.084-.69-.251-.909-.162-.22-.392-.329-.689-.329-.523 0-.784.306-.784.917v.705Z"/>
  <circle cx="188.887" cy="25.678" r="17.844" fill="#D9D9D9"/>
</svg>
