<svg xmlns="http://www.w3.org/2000/svg" width="391" height="446" fill="none" viewBox="0 0 391 446">
  <mask id="a" width="390" height="446" x="0" y="0" maskUnits="userSpaceOnUse" style="mask-type:luminance">
    <path fill="#fff" d="M389.697.892H.079v444.845h389.618V.892Z"/>
  </mask>
  <g mask="url(#a)">
    <path fill="#fff" d="M369.699 85.026H320.16c-9.143 0-16.555 7.411-16.555 16.553v272.372c0 9.141 7.412 16.553 16.555 16.553h49.539c9.144 0 16.557-7.412 16.557-16.553V101.579c0-9.142-7.413-16.553-16.557-16.553Z"/>
    <path fill="#C9D2DF" d="M342.367 204.389V81.704H102.143V388.74h240.224V204.389Z" opacity=".45"/>
    <path fill="#C9D2DF" d="M229.267 298.98h136.474v-10.646H229.267v10.646Zm0 24.19h136.474v-10.645H229.267v10.645Zm0 24.218h136.474v-10.646H229.267v10.646Zm0-138.194h136.474v-10.646H229.267v10.646Zm0 24.138h136.474v-10.645H229.267v10.645Zm0 24.291h136.474v-10.645H229.267v10.645Zm0-141.054h136.474v-10.645H229.267v10.645Z"/>
    <path fill="#C9D2DF" d="M229.267 165.051h136.474v-59.849H229.267v59.849Z"/>
    <path fill="#3E3126" d="M380.021 391.018a2.271 2.271 0 1 1 0-4.544 3.964 3.964 0 0 0 2.824-1.182 3.968 3.968 0 0 0 1.137-2.842V233.931a2.272 2.272 0 1 1 4.544 0V382.45a8.565 8.565 0 0 1-8.505 8.568Zm-15.451-.013h-28.567a2.274 2.274 0 0 1-2.272-2.272 2.268 2.268 0 0 1 2.272-2.271h28.567a2.269 2.269 0 0 1 2.273 2.271 2.275 2.275 0 0 1-2.273 2.272Zm-59.343.022H152.263a8.566 8.566 0 0 1-8.505-8.568V94.832a15.447 15.447 0 0 1 15.387-15.384H373.4a15.452 15.452 0 0 1 15.386 15.384v109.572c0 .603-.24 1.181-.666 1.606a2.27 2.27 0 0 1-3.879-1.606V94.832a10.84 10.84 0 0 0-10.841-10.84H159.145a10.84 10.84 0 0 0-10.842 10.84V382.46a3.955 3.955 0 0 0 3.96 4.024h152.964a2.272 2.272 0 1 1 0 4.544Z"/>
    <path fill="#fff" d="M322.5 46.535H2.159v361.626H322.5V46.535Z"/>
    <path fill="#C9D2DF" d="M322.5 151.738v249.004a9.486 9.486 0 0 1-5.898 8.775 9.512 9.512 0 0 1-3.648.702H30.205C199.79 361.015 286.076 227.166 322.5 151.738Z" opacity=".2"/>
    <path fill="#C9D2DF" d="M322.434 159.09H3.715v1.364h318.719v-1.364Zm0 96.508H3.715v1.363h318.719v-1.363Zm0 103.277H3.715v1.363h318.719v-1.363Z" opacity=".5"/>
    <path fill="#CEDFFF" d="M8.585 13.214H317.63a4.805 4.805 0 0 1 4.805 4.803v26.485H3.716v-26.42a4.802 4.802 0 0 1 4.87-4.868Z"/>
    <path fill="#57A8B2" d="M32.414 31.007a5.778 5.778 0 1 0-5.778-5.777 5.778 5.778 0 0 0 5.778 5.777Zm17.528 0a5.778 5.778 0 1 0-5.778-5.777 5.778 5.778 0 0 0 5.778 5.777Zm17.595 0a5.778 5.778 0 1 0-5.779-5.777 5.778 5.778 0 0 0 5.779 5.777Z"/>
    <path fill="#C9D2DF" d="M322.5 52.824H3.716a2.532 2.532 0 0 1 0-4.998H322.5a2.527 2.527 0 0 1 2.127 2.5 2.53 2.53 0 0 1-2.127 2.498Z" opacity=".2"/>
    <path fill="#BBD2FF" d="M32.414 31.007a5.778 5.778 0 1 0-5.778-5.777 5.778 5.778 0 0 0 5.778 5.777Zm17.528 0a5.778 5.778 0 1 0-5.778-5.777 5.778 5.778 0 0 0 5.778 5.777Zm17.595 0a5.778 5.778 0 1 0-5.779-5.777 5.778 5.778 0 0 0 5.779 5.777Z"/>
    <path fill="#3E3126" d="M32.541 32.112a6.883 6.883 0 0 1-7.183-7.969 6.88 6.88 0 0 1 9.33-5.298 6.883 6.883 0 0 1 4.346 6.386 6.88 6.88 0 0 1-6.493 6.88Zm0-11.75a4.675 4.675 0 1 0 4.61 4.674 4.607 4.607 0 0 0-4.61-4.673Zm17.4 11.761a6.886 6.886 0 0 1-6.312-4.293 6.879 6.879 0 0 1 5.058-9.341 6.884 6.884 0 0 1 8.201 6.753 6.944 6.944 0 0 1-6.947 6.88Zm0-11.75a4.676 4.676 0 0 0-4.585 5.586 4.672 4.672 0 0 0 6.374 3.406 4.675 4.675 0 0 0 2.886-4.318 4.611 4.611 0 0 0-4.675-4.674Zm17.596 11.75a6.883 6.883 0 0 1-6.882-6.881 6.88 6.88 0 0 1 6.882-6.88 6.883 6.883 0 0 1 6.882 6.88 6.88 6.88 0 0 1-6.882 6.88Zm0-11.555a4.675 4.675 0 0 0 0 9.283 4.675 4.675 0 0 0 0-9.283Z"/>
    <path fill="#C9D2DF" d="M212.516 113.777H183.04v5.323h29.476v-5.323Zm.973 95.417h-29.476v5.323h29.476v-5.323Zm0 95.873h-29.476v5.322h29.476v-5.322Zm-47.264-125.412H33.518c-1.04 0-1.883.843-1.883 1.883v6.881c0 1.04.843 1.882 1.883 1.882h132.707c1.04 0 1.884-.842 1.884-1.882v-6.881c0-1.04-.844-1.883-1.884-1.883Zm0 24.213H33.518c-1.04 0-1.883.842-1.883 1.882v6.881c0 1.039.843 1.882 1.883 1.882h132.707c1.04 0 1.884-.843 1.884-1.882v-6.881c0-1.04-.844-1.882-1.884-1.882Zm0 24.217H33.518c-1.04 0-1.883.843-1.883 1.882v6.881c0 1.039.843 1.883 1.883 1.883h132.707c1.04 0 1.884-.844 1.884-1.883v-6.881a1.884 1.884 0 0 0-1.884-1.882Zm0-152.62H33.518c-1.04 0-1.883.843-1.883 1.883v6.88c0 1.04.843 1.883 1.883 1.883h132.707c1.04 0 1.884-.843 1.884-1.883v-6.88c0-1.04-.844-1.883-1.884-1.883Zm0 24.217H33.518c-1.04 0-1.883.843-1.883 1.883v6.881c0 1.039.843 1.882 1.883 1.882h132.707c1.04 0 1.884-.843 1.884-1.882v-6.881c0-1.04-.844-1.883-1.884-1.883Zm0 24.213H33.518c-1.04 0-1.883.842-1.883 1.882v6.881c0 1.04.843 1.882 1.883 1.882h132.707c1.04 0 1.884-.842 1.884-1.882v-6.881c0-1.04-.844-1.882-1.884-1.882Zm0 151.249H33.518c-1.04 0-1.883.844-1.883 1.884v6.88c0 1.04.843 1.883 1.883 1.883h132.707c1.04 0 1.884-.843 1.884-1.883v-6.88c0-1.04-.844-1.884-1.884-1.884Zm0 24.219H33.518c-1.04 0-1.883.842-1.883 1.882v6.881c0 1.039.843 1.882 1.883 1.882h132.707c1.04 0 1.884-.843 1.884-1.882v-6.881c0-1.04-.844-1.882-1.884-1.882Zm0 24.217H33.518c-1.04 0-1.883.842-1.883 1.882v6.88c0 1.04.843 1.884 1.883 1.884h132.707c1.04 0 1.884-.844 1.884-1.884v-6.88c0-1.04-.844-1.882-1.884-1.882Z"/>
    <path fill="#FF9C01" d="m190.895 82.995 2.142 4.284 4.74.714-3.441 3.376.844 4.739-4.285-2.272-4.285 2.272.844-4.74-3.441-3.375 4.739-.714 2.143-4.284Zm17.791 0 2.142 4.284 4.741.714-3.441 3.376.843 4.739-4.285-2.272-4.284 2.272.843-4.74-3.441-3.375 4.739-.714 2.143-4.284Zm17.789 0 2.143 4.284 4.739.714-3.441 3.376.779 4.739-4.22-2.272-4.285 2.272.844-4.74-3.506-3.375 4.805-.714 2.142-4.284Zm17.788 0 2.144 4.284 4.739.714-3.442 3.376.78 4.739-4.221-2.272-4.284 2.272.843-4.74-3.505-3.375 4.803-.714 2.143-4.284Zm17.792 0 2.077 4.284 4.805.714-3.441 3.376.779 4.739-4.22-2.272-4.285 2.272.779-4.74-3.441-3.375 4.804-.714 2.143-4.284Zm-71.16 95.443 2.142 4.349 4.74.649-3.441 3.375.844 4.739-4.285-2.207-4.285 2.207.844-4.739-3.441-3.375 4.739-.649 2.143-4.349Zm17.791 0 2.142 4.349 4.741.649-3.441 3.375.843 4.739-4.285-2.207-4.284 2.207.843-4.739-3.441-3.375 4.739-.649 2.143-4.349Zm17.789 0 2.143 4.349 4.739.649-3.441 3.375.779 4.739-4.22-2.207-4.285 2.207.844-4.739-3.506-3.375 4.805-.649 2.142-4.349Zm17.788 0 2.144 4.349 4.739.649-3.442 3.375.78 4.739-4.221-2.207-4.284 2.207.843-4.739-3.505-3.375 4.803-.649 2.143-4.349Zm17.792 0 2.077 4.349 4.805.649-3.441 3.375.779 4.739-4.22-2.207-4.285 2.207.779-4.739-3.441-3.375 4.804-.649 2.143-4.349Zm-71.16 95.469 2.142 4.284 4.74.714-3.441 3.375.844 4.739-4.285-2.272-4.285 2.272.844-4.739-3.441-3.375 4.739-.714 2.143-4.284Zm17.791 0 2.142 4.284 4.741.714-3.441 3.375.843 4.739-4.285-2.272-4.284 2.272.843-4.739-3.441-3.375 4.739-.714 2.143-4.284Zm17.789 0 2.143 4.284 4.739.714-3.441 3.375.779 4.739-4.22-2.272-4.285 2.272.844-4.739-3.506-3.375 4.805-.714 2.142-4.284Zm17.788 0 2.144 4.284 4.739.714-3.442 3.375.78 4.739-4.221-2.272-4.284 2.272.843-4.739-3.505-3.375 4.803-.714 2.143-4.284Zm17.792 0 2.077 4.284 4.805.714-3.441 3.375.779 4.739-4.22-2.272-4.285 2.272.779-4.739-3.441-3.375 4.804-.714 2.143-4.284Z"/>
    <path fill="#fff" d="M150.382 8.044h-30.71a5.194 5.194 0 0 0-5.194 5.193v.065a5.194 5.194 0 0 0 5.194 5.193h30.71a5.194 5.194 0 0 0 5.194-5.193v-.065a5.194 5.194 0 0 0-5.194-5.193Zm-1.363 22.059c3.621 0 6.557-1.947 6.557-4.349s-2.936-4.35-6.557-4.35c-3.622 0-6.558 1.948-6.558 4.35 0 2.402 2.936 4.349 6.558 4.349Z" opacity=".45"/>
    <path fill="#3E3126" d="M386.256 222.897a3.44 3.44 0 1 0 0-6.882 3.44 3.44 0 0 0 0 6.882Z"/>
    <path fill="#BBD2FF" d="M322.435 39.509H2.159v4.998h320.276v-4.998Z"/>
    <path fill="#3E3126" d="M322.498 47.758H3.715a2.273 2.273 0 0 1 0-4.544h318.783a2.272 2.272 0 1 1 0 4.544ZM3.716 299.477a3.44 3.44 0 0 1-1.441-.225 3.434 3.434 0 0 1-2.195-3.476V191.917a3.441 3.441 0 0 1 6.882 0v103.859a3.445 3.445 0 0 1-.844 2.533 3.435 3.435 0 0 1-2.402 1.168ZM120.58 415.299H12.025c-1.568 0-3.122-.309-4.571-.91a11.95 11.95 0 0 1-7.375-11.034v-83.024a3.698 3.698 0 0 1 3.636-3.699 3.702 3.702 0 0 1 3.636 3.699v83.024a4.67 4.67 0 0 0 1.369 3.304 4.669 4.669 0 0 0 3.305 1.369H120.58c.965 0 1.89.383 2.571 1.066a3.632 3.632 0 0 1 0 5.141 3.636 3.636 0 0 1-2.571 1.064Zm193.611-.653h-94.663a2.989 2.989 0 0 1-2.985-2.985 2.985 2.985 0 0 1 2.985-2.987h94.663a2.985 2.985 0 0 1 2.11 5.097c-.56.56-1.319.875-2.11.875Z"/>
    <path fill="#3E3126" d="M322.5 375.631a3.446 3.446 0 0 1-2.434-1.007 3.443 3.443 0 0 1-1.007-2.433V21.664A14.024 14.024 0 0 0 305.23 7.773h-64.535a3.44 3.44 0 1 1 0-6.88h64.535a20.843 20.843 0 0 1 14.737 6.102 20.832 20.832 0 0 1 6.104 14.734v350.527c0 .46-.093.916-.274 1.338a3.392 3.392 0 0 1-1.946 1.839 3.392 3.392 0 0 1-1.351.198ZM3.715 163.174a3.45 3.45 0 0 1-2.56-.936 3.449 3.449 0 0 1-1.076-2.504V21.73A20.898 20.898 0 0 1 13.135 2.422 20.91 20.91 0 0 1 21.18.893h188.998a3.443 3.443 0 0 1 3.441 3.44 3.442 3.442 0 0 1-3.441 3.44H21.18A14.026 14.026 0 0 0 7.156 21.73v138.004a3.443 3.443 0 0 1-3.441 3.44Z"/>
    <path fill="#C9D2DF" d="M95.261 393.866c5.092 0 9.22-4.127 9.22-9.218 0-5.09-4.128-9.217-9.22-9.217-5.092 0-9.22 4.127-9.22 9.217 0 5.091 4.128 9.218 9.22 9.218Zm12.919-21.94a3.7 3.7 0 1 0 0-7.399 3.7 3.7 0 1 0 0 7.399Zm-38.565 16.431a3.7 3.7 0 1 0 0-7.4 3.7 3.7 0 1 0 0 7.4Z" opacity=".2"/>
    <path fill="#7179CE" d="M178.429 443.264a36.37 36.37 0 0 0 22.663-7.921 36.35 36.35 0 0 0 12.786-20.317h46.746v20.058h17.01v-20.058h11.103v20.058h17.01v-20.058h18.959a7.83 7.83 0 0 0 3.137-.601 7.845 7.845 0 0 0 2.641-1.801 7.92 7.92 0 0 0 2.402-5.712 8.177 8.177 0 0 0-8.18-8.179H213.878a36.343 36.343 0 0 0-9.772-17.58 36.366 36.366 0 0 0-54.102 3.122 36.342 36.342 0 0 0-4.307 38.415 36.354 36.354 0 0 0 32.732 20.574Zm0-52.775a16.427 16.427 0 0 1 15.175 10.139 16.419 16.419 0 0 1-11.97 22.391 16.43 16.43 0 0 1-16.863-6.983 16.418 16.418 0 0 1-2.768-9.124 16.446 16.446 0 0 1 1.212-6.325 16.43 16.43 0 0 1 15.214-10.228v.13Z"/>
    <path fill="#84A6F2" d="M194.792 409.509h137.575v-4.09H194.792v4.09Zm-52.98 0h20.257v-4.09h-20.257v4.09Z"/>
    <path fill="#84A6F2" d="M194.792 407.51h137.575v-4.091H194.792v4.091Zm-52.98 0h20.257v-4.091h-20.257v4.091Zm53.043 13.307h17.205l-2.012 4.089h-15.193v-4.089Zm-50.057 0h17.269v4.089h-16.1l-1.169-4.089Zm-1.167-23.964a36.354 36.354 0 0 1 33.445-27.764 36.353 36.353 0 0 1 36.155 24.128 51.304 51.304 0 0 0-32.917-11.1 49.285 49.285 0 0 0-36.683 14.736Zm159.715 32.454c-.412 0-.809-.165-1.102-.456a1.56 1.56 0 0 1-.455-1.102v-14.93a1.552 1.552 0 0 1 .962-1.439c.188-.078.391-.118.595-.118h16.751a1.559 1.559 0 0 1 1.559 1.557c0 .413-.164.81-.457 1.101a1.553 1.553 0 0 1-1.102.457H305.23v13.631a1.623 1.623 0 0 1-1.884 1.299Zm-4.609 5.192h-7.597a1.56 1.56 0 0 1-1.101-.455 1.561 1.561 0 0 1-.456-1.102v-18.565H279.26c-.414 0-.81-.164-1.102-.457a1.552 1.552 0 0 1 0-2.203 1.56 1.56 0 0 1 1.102-.455h11.751a1.565 1.565 0 0 1 1.102.455c.144.145.26.317.337.507.078.188.119.39.119.595v18.565h6.492a1.56 1.56 0 0 1 1.623 1.558 1.604 1.604 0 0 1-.608 1.235 1.609 1.609 0 0 1-.633.31 1.587 1.587 0 0 1-.706.012Zm-27.724 0h-7.921a1.557 1.557 0 0 1-1.559-1.557v-18.565H251.34c-.413 0-.81-.164-1.101-.457a1.552 1.552 0 0 1 0-2.203 1.558 1.558 0 0 1 1.101-.455h11.752c.412 0 .809.164 1.102.455.291.293.455.689.455 1.102v18.565h6.493c.413 0 .81.164 1.101.457.293.291.457.688.457 1.101a1.552 1.552 0 0 1-1.687 1.557Z"/>
    <path fill="#3E3126" d="M178.429 445.749a38.965 38.965 0 0 1-36.391-24.988 38.933 38.933 0 0 1-2.564-15.323 38.942 38.942 0 0 1 10.491-24.459 38.965 38.965 0 0 1 49.676-5.971 38.95 38.95 0 0 1 15.989 21.277h109.076a10.655 10.655 0 0 1 8.061 2.798 10.648 10.648 0 0 1 0 15.631 10.658 10.658 0 0 1-8.061 2.797h-16.492v14.995a5.064 5.064 0 0 1-4.998 5.063h-11.882a5.062 5.062 0 0 1-5.064-5.063v-14.995h-6.168v14.671a5.394 5.394 0 0 1-1.578 3.81 5.39 5.39 0 0 1-3.811 1.577h-11.167a5.387 5.387 0 0 1-5.389-5.387v-14.671h-20.711a2.464 2.464 0 0 1 0-4.868h23.179a2.47 2.47 0 0 1 2.401 2.466v17.073a.59.59 0 0 0 .52.519h11.167a.584.584 0 0 0 .52-.519v-17.073a2.462 2.462 0 0 1 2.401-2.466h11.103a2.403 2.403 0 0 1 2.402 2.466v17.397h12.077v-17.592a2.466 2.466 0 0 1 2.402-2.466h19.088a5.534 5.534 0 0 0 4.026-1.687 5.635 5.635 0 0 0 1.687-4.025 5.72 5.72 0 0 0-5.713-5.778H213.878a2.405 2.405 0 0 1-2.338-1.882 33.95 33.95 0 0 0-33.826-25.965 34.351 34.351 0 0 0-22.902 9.777 34.334 34.334 0 0 0-10.274 22.679 33.886 33.886 0 0 0 31.671 35.187 33.907 33.907 0 0 0 16.958-3.314 2.404 2.404 0 0 1 3.247 1.167 2.47 2.47 0 0 1-1.105 3.246 38.983 38.983 0 0 1-16.88 3.896Zm30.06-15.904a2.532 2.532 0 0 1-1.362-.39 2.396 2.396 0 0 1-.651-3.376 34.102 34.102 0 0 0 5.064-11.554 2.402 2.402 0 0 1 2.338-1.882h14.283a2.464 2.464 0 0 1 1.997.555 2.456 2.456 0 0 1 .869 1.879 2.473 2.473 0 0 1-.869 1.881 2.469 2.469 0 0 1-1.997.553h-12.336a38.901 38.901 0 0 1-5.323 11.295 2.343 2.343 0 0 1-2.013 1.039Zm-30.06-4.09a18.822 18.822 0 0 1-10.46-3.173 18.825 18.825 0 0 1 17.665-33.043 18.813 18.813 0 0 1 8.45 6.934 18.827 18.827 0 0 1-15.655 29.282Zm0-32.781a13.958 13.958 0 0 0-9.87 23.825 13.963 13.963 0 0 0 21.476-2.114 13.957 13.957 0 0 0-11.606-21.711Z"/>
    <path fill="#3E3126" d="M202.322 437.504a2.726 2.726 0 1 0 0-5.452 2.727 2.727 0 1 0 0 5.452ZM3.717 178.89a3.181 3.181 0 1 0 0-6.362 3.181 3.181 0 0 0 0 6.362ZM225.436 7.505a3.18 3.18 0 1 0 .002-6.361 3.18 3.18 0 0 0-.002 6.361Zm58.173 106.072a1.604 1.604 0 0 1-.779 0 1.884 1.884 0 0 1-1.035-1.016 1.881 1.881 0 0 1-.004-1.45l10.454-24.602a1.888 1.888 0 0 1 2.467-1.039 1.89 1.89 0 0 1 1.038 2.467l-10.387 24.472a1.76 1.76 0 0 1-1.754 1.168Zm13.7-11.797c-.235.057-.48.057-.713 0a1.896 1.896 0 0 1-1.183-1.741c-.001-.25.049-.496.143-.726l5.519-12.982a1.872 1.872 0 0 1 1.019-1.03 1.887 1.887 0 0 1 1.448-.009 1.899 1.899 0 0 1 1.031 1.018 1.896 1.896 0 0 1 .008 1.448l-5.584 12.983a1.822 1.822 0 0 1-1.688 1.039Z"/>
  </g>
</svg>
