<svg xmlns="http://www.w3.org/2000/svg" width="464" height="299" fill="none" viewBox="0 0 464 299">
  <g clip-path="url(#a)">
    <path fill="#C6E3FF" d="M439.422 200.065c-2.772-4.695-.553-10.909 3.099-14.949 3.661-4.039 8.551-6.76 12.437-10.589 6.947-6.838 10.202-17.233 8.388-26.816-1.807-9.583-8.629-18.075-17.585-21.904-12.39-5.294-28.939-2.69-37.365-13.209-5.654-7.049-4.953-17.248-2.586-25.974 2.368-8.726 6.152-17.326 5.755-26.364-.88-19.884-22.794-33.678-42.63-32.368-19.835 1.31-37.202 13.521-52.131 26.668-4.314 3.805-8.706 7.829-14.181 9.607-5.475 1.778-12.383.585-15.404-4.32-1.573-2.558-1.885-5.724-3.364-8.336-4.681-8.258-17.39-6.363-25.209-.99-7.819 5.372-14.704 13.31-24.127 14.386-11.821 1.35-21.875-8.912-27.148-19.595-5.272-10.683-8.044-22.84-15.731-31.94-12.141-14.37-36.026-16.71-50.721-4.966-10.841 8.663-15.786 22.504-22.133 34.855-6.339 12.352-16.307 24.867-30.13 26.06-17.04 1.474-30.941-14.792-47.965-16.484-14.594-1.45-28.76 8.928-34.352 22.504-5.591 13.576-3.621 29.405 2.523 42.731 6.067 13.147 16.285 26.075 13.73 40.33-2.562 14.308-17.21 23.634-21.416 37.553-3.466 11.463.981 24.15 8.55 33.437 7.563 9.279 17.89 15.813 28.021 22.184l390.227 13.973c12.172-10.168 20.443-24.133 28.48-37.818 2.484-4.234 5.046-9.287 3.161-13.818-3.224-7.743-15.933-6.636-20.201-13.848h.008Z" opacity=".3"/>
    <mask id="b" width="464" height="266" x="0" y="-1" maskUnits="userSpaceOnUse" style="mask-type:luminance">
      <path fill="#fff" d="M439.578 199.152c-2.773-4.694-.553-10.908 3.099-14.948 3.661-4.039 8.551-6.76 12.437-10.589 6.947-6.838 10.202-17.233 8.388-26.816-1.815-9.583-8.629-18.075-17.585-21.904-12.39-5.294-28.939-2.69-37.365-13.209-5.654-7.049-4.953-17.249-2.586-25.974 2.367-8.726 6.152-17.327 5.755-26.364-.88-19.884-22.795-33.678-42.63-32.368-19.835 1.31-37.202 13.521-52.131 26.668-4.314 3.805-8.707 7.829-14.181 9.607-5.467 1.777-12.383.584-15.404-4.32-1.574-2.558-1.885-5.724-3.365-8.336-4.68-8.258-17.39-6.363-25.209-.99-7.818 5.372-14.703 13.31-24.126 14.386-11.822 1.35-21.876-8.912-27.148-19.595-5.28-10.683-8.045-22.84-15.731-31.94-12.141-14.37-36.026-16.71-50.721-4.967-10.841 8.664-15.786 22.505-22.133 34.856-6.339 12.352-16.308 24.867-30.13 26.06-17.04 1.474-30.941-14.792-47.965-16.484-14.595-1.45-28.76 8.928-34.352 22.504-5.592 13.575-3.621 29.405 2.523 42.731 6.067 13.147 16.284 26.075 13.73 40.33-2.562 14.308-17.21 23.634-21.416 37.553-3.466 11.463.981 24.15 8.55 33.437 7.563 9.279 17.889 15.813 28.02 22.184l390.228 13.973c12.172-10.168 20.443-24.133 28.48-37.818 2.484-4.234 5.046-9.287 3.161-13.818-3.224-7.743-15.933-6.636-20.201-13.849h.008Z"/>
    </mask>
    <g mask="url(#b)">
      <path fill="#fff" d="M126.535 126.884H53.751v102.329h72.784V126.884Zm0-107.507H53.751v102.329h72.784V19.377Zm79.022 107.507h-72.784v102.329h72.784V126.884Zm0-107.507h-72.784v102.329h72.784V19.377Z"/>
      <path fill="#A4BFFB" d="M119.253-1.567s-.794 83.022-53.79 135.96c0 0 17.928 117.683 20.319 142.433H28.417s8.77-109.301 11.954-140.912c0 0-6.775-105.877-8.364-138.627l87.254 1.146h-.008Z"/>
      <path fill="#84A6F2" d="M138.216-1.567s.795 83.022 53.79 135.96c0 0-17.927 117.683-20.318 142.433h57.372s-8.769-109.301-11.954-140.912c0 0 6.775-105.877 8.364-138.627l-87.254 1.146Z"/>
    </g>
    <path fill="#ADDCFF" d="M369.613 90.079h-9.556v40.485h9.556V90.079Z"/>
    <path fill="#C6E3FF" d="M378.904 95.365h-9.556v35.191h9.556v-35.19Zm-18.66 4.578h-6.487v30.614h6.487V99.943Z"/>
    <path fill="#ADDCFF" d="M383.67 99.638h-5.101v30.918h5.101V99.638Z"/>
    <path fill="#C6E3FF" d="M426.23 105.542c-.429-.718-1.34-.928-2.041-.608-.381.179-.701.483-.95.857a14.932 14.932 0 0 0 .981-6.807c-.054-.624-.171-1.279-.568-1.716-.685-.764-1.908-.42-2.531.406a3.527 3.527 0 0 0-.514.99 17.33 17.33 0 0 0 .202-3.36c-.031-.718-.272-1.63-.903-1.685-.436-.039-.786.382-1.043.78-.966 1.513-1.566 3.33-1.714 5.193.374-3.392.748-6.9-.101-10.176-.164-.647-.389-1.294-.802-1.778-.405-.483-1.036-.78-1.597-.577-.732.258-1.082 1.185-1.292 2.028-.6 2.378-.771 4.881-.546 7.337a7.937 7.937 0 0 0-.35-.67c-.35-.593-.864-1.17-1.495-1.162-.491 0-.935.374-1.192.842-.265.468-.374 1.03-.444 1.583-.288 2.23 0 4.546.803 6.605-.328-.437-.795-.733-1.293-.78-.826-.078-1.659.546-1.939 1.435-.234.74-.102 1.559.109 2.308 1.479 5.224 6.479 8.678 11.191 8.047 2.087-.281 4.08-1.341 5.653-2.932 1.223-1.24 3.598-4.141 2.391-6.152l-.015-.008Z"/>
    <path fill="#C6E3FF" d="M423.231 129.8h-13.644l-3.146-16.048h19.937l-3.147 16.048Z"/>
    <path fill="#ADDCFF" d="M423.893 128.318h-15.03v1.973h15.03v-1.973Zm2.983-17.295H405.88v4.429h20.996v-4.429Z"/>
    <path fill="#C6E3FF" d="M442.833 130.206H332.216v2.721h110.617v-2.721Zm-1.495 2.729H333.712v7.899h107.626v-7.899ZM322.45 55.099h-25.543v12.718h25.543V55.099Z"/>
    <path fill="#ADDCFF" d="M322.964 67.816h-26.579v1.864h26.579v-1.864Z"/>
    <path fill="#fff" d="M316.353 57.983h-13.356a1.816 1.816 0 0 0-1.815 1.817v3.759c0 1.003.813 1.817 1.815 1.817h13.356a1.815 1.815 0 0 0 1.814-1.817V59.8a1.815 1.815 0 0 0-1.814-1.817Z"/>
    <path fill="#ADDCFF" d="M318.588 36.43c-1.044-.039-2.484-.49-3.474-2.432a.788.788 0 0 1 .335-1.053.786.786 0 0 1 1.052.335c.529 1.022 1.246 1.56 2.141 1.59h.031c1.651.032 3.793-1.598 5.078-3.875 1.332-2.355 1.223-4.88.421-6.16-.374-.592-.849-.88-1.441-.842-1.153.07-1.807.983-2.438 1.864-.599.834-1.254 1.778-2.406 1.653a.775.775 0 0 1-.678-.866.777.777 0 0 1 .865-.686c.194.031.623-.546.958-1.006.724-1.013 1.713-2.401 3.613-2.518 1.153-.07 2.173.49 2.85 1.575 1.231 1.98 1.075 5.17-.389 7.75-1.604 2.839-4.205 4.71-6.464 4.664h-.054v.007Zm-17.826 0c1.043-.039 2.484-.49 3.473-2.432a.787.787 0 0 0-.335-1.053.785.785 0 0 0-1.051.335c-.53 1.022-1.246 1.56-2.142 1.59h-.031c-1.651.032-3.793-1.598-5.078-3.875-1.331-2.355-1.222-4.88-.42-6.16.374-.592.849-.88 1.441-.842 1.152.07 1.806.983 2.437 1.864.6.834 1.254 1.778 2.407 1.653a.773.773 0 0 0 .677-.866.776.776 0 0 0-.864-.686c-.195.031-.623-.546-.958-1.006-.725-1.013-1.714-2.401-3.614-2.518-1.152-.07-2.173.49-2.85 1.575-1.231 1.98-1.075 5.17.389 7.75 1.605 2.839 4.206 4.71 6.464 4.664h.055v.007Zm.225 16.719h17.383c.327 0 .592.265.592.593v.756a.592.592 0 0 1-.592.593h-17.383a.591.591 0 0 1-.591-.593v-.756c0-.328.264-.593.591-.593Z"/>
    <path fill="#C6E3FF" d="m316.734 52.3-1.744-1.396a7.478 7.478 0 0 1-2.804-5.638 3.9 3.9 0 0 0 1.418-2.994 3.89 3.89 0 0 0-.694-2.223c6.028-2.776 7.15-13.389 7.22-19.86h-20.903c.071 6.471 1.192 17.084 7.22 19.86a3.896 3.896 0 0 0-.693 2.223 3.9 3.9 0 0 0 1.417 2.994 7.478 7.478 0 0 1-2.804 5.638l-1.744 1.395c-.405.265-.195.85.304.85h13.511c.499 0 .709-.585.304-.85h-.008Z"/>
    <path fill="#ADDCFF" d="M319.888 18.925h-20.419a.975.975 0 0 0 0 1.95h20.419a.975.975 0 0 0 0-1.95Z"/>
    <path fill="#C6E3FF" d="M387.447 69.251H276.83v2.721h110.617v-2.721Z"/>
    <path fill="#C6E3FF" d="M385.952 71.973H278.325v7.899h107.627v-7.9Z"/>
    <path fill="#ADDCFF" d="M359.356 43.34h5.374c.304 0 .553.179.623.46l6.402 24.258c.132.515-.351 1.1-.912 1.1h-5.373c-.304 0-.553-.18-.623-.46l-6.402-24.26c-.132-.514.351-1.099.911-1.099Z"/>
    <path fill="#ADDCFF" d="M368.99 34.154h-25.816l-5.475 35.05h25.824l5.467-35.05Z"/>
    <path fill="#C6E3FF" d="M367.534 34.154h-25.817l-5.474 35.05h25.816l5.475-35.05Z"/>
    <path fill="#fff" d="M363.741 37.39h-19.243l-4.463 28.579h19.244l4.462-28.579Z"/>
    <path fill="#C6E3FF" d="M357.885 42.88h-9.252l-2.742 17.599h9.252l2.742-17.6Z"/>
    <path fill="#FFB145" d="M184.195 178.832c-1.106-8.492 1.822-15.899 10.7-15.899s14.003 10.651 15.109 19.135c1.105 8.492 7.133 46.209 9.913 48.619 4.953 4.281 35.333-.188 41.392 4.475 6.059 4.663 13.255 37.195 8.084 42.911-5.171 5.708-58.229 6.176-66.819 0-8.59-6.176-17.273-90.757-18.379-99.241Z"/>
    <path fill="#FFB145" d="M184.195 178.832c-1.106-8.492 1.822-15.899 10.7-15.899s14.003 10.651 15.109 19.135c1.105 8.492 7.133 46.209 9.913 48.619 4.953 4.281 35.333-.188 41.392 4.475 6.059 4.663 13.255 37.195 8.084 42.911-5.171 5.708-58.229 6.176-66.819 0-8.59-6.176-17.273-90.757-18.379-99.241Z" opacity=".32" style="mix-blend-mode:multiply"/>
    <path fill="#FFB145" d="M91.35 172.313c2.874-6.472 15.529-12.57 53.19-12.57 37.662 0 49.787 3.618 52.552 8.094 2.764 4.476 28.511 106.306 21.914 111.421-6.596 5.115-97.447 7.884-106.808.429-9.361-7.455-22.553-103.538-20.848-107.374Z"/>
    <path fill="#FFB145" d="M197.099 167.837c-.701-1.13-2.001-2.207-4.158-3.181 6.806 29.576-10.833 58.849-33.503 76.776-11.253 8.897-25.481 16.172-40.231 14.776-6.122-.577-11.62-2.799-16.775-6.027 3.232 15.104 6.705 27.065 9.773 29.506 9.361 7.455 100.213 4.686 106.809-.429 6.596-5.115-19.15-106.945-21.915-111.421Z" opacity=".1" style="mix-blend-mode:multiply"/>
    <path fill="#FFB145" d="M93.624 175.806c3.972-2.136 8.169-3.992 12.312-5.762 10.187-4.343 20.762-6.535 31.759-7.564 12.18-1.138 24.43-.904 36.633-.437 3.279.125 6.557.234 9.789.11-8.076-1.49-20.575-2.41-39.577-2.41-37.661 0-50.316 6.098-53.19 12.57-.203.444-.195 2.16-.016 4.835.733-.484 1.511-.921 2.282-1.342h.008Z" opacity=".36" style="mix-blend-mode:overlay"/>
    <path fill="#FFF8DB" d="M187.941 234.039a71.178 71.178 0 0 0 2.438-12.024A72.8 72.8 0 0 0 189 197.382a69.36 69.36 0 0 0-4.563-13.38c-.374-.811-.81-1.669-1.597-2.106-.779-.437-1.994-.187-2.235.679-16.004-6.73-34.655-6.886-50.76-.414-3.139 1.263-6.363 2.792-9.735 2.488-1.199-.109-2.375-.453-3.575-.359-1.199.086-2.476.772-2.749 1.942-.272 1.169 1.122 2.495 2.126 1.84-3.574 14.098-3.052 29.21 1.472 43.027 1.114 3.408 2.485 7.026 1.542 10.488-.311 1.131-.864 2.316-.498 3.431.366 1.115 2.313 1.536 2.578.39 14.547 9.607 33.557 12.094 50.09 6.566 4.268-1.427 8.349-3.345 12.422-5.264 1.246-.584 2.593-1.278 3.122-2.549.608-1.474-.926-2.706-.747-4.196.218-1.887 1.495-4.054 2.04-5.91l.008-.016Z"/>
    <path fill="#FFF8DB" d="M187.941 234.039a70.655 70.655 0 0 0 2.251-10.628c-3.505.764-7.056 1.295-10.592 1.677-12.187 1.325-24.78.483-36.571-2.932-9.781-2.839-18.994-8.133-25.497-16.095a43.112 43.112 0 0 1-3.699-5.279c-.818 10.207.374 20.578 3.559 30.31 1.114 3.407 2.484 7.026 1.542 10.488-.311 1.13-.864 2.316-.498 3.431.366 1.115 2.313 1.536 2.577.39 14.548 9.606 33.558 12.094 50.091 6.565 4.268-1.427 8.348-3.345 12.421-5.263 1.246-.585 2.594-1.279 3.123-2.55.608-1.474-.926-2.706-.747-4.195.218-1.887 1.495-4.055 2.04-5.911v-.008Z" style="mix-blend-mode:multiply"/>
    <path fill="#FFC9B0" d="M231.451 189.359s21.198 30.863 23.924 32.836c2.726 1.965 46.43 21.249 46.43 21.249l-14.049 16.616s-48.097-18.714-51.679-22.823c-3.582-4.11-24.251-33.78-24.251-33.78l19.625-14.106v.008Z"/>
    <path fill="#FFC9B0" d="M231.451 189.359s21.198 30.863 23.924 32.836c2.726 1.965 46.43 21.249 46.43 21.249l-14.049 16.616s-48.097-18.714-51.679-22.823c-3.582-4.11-24.251-33.78-24.251-33.78l19.625-14.106v.008Z" opacity=".6" style="mix-blend-mode:multiply"/>
    <path fill="#FFC9B0" d="M230.127 215.224c2.524-2.035 4.525-4.64 6.129-7.439a26.69 26.69 0 0 0 2.889-7.361c-4.267-6.082-7.686-11.065-7.686-11.065l-19.625 14.106s5.155 7.4 10.763 15.322c2.647-.928 5.217-1.692 7.53-3.563Z" style="mix-blend-mode:multiply"/>
    <path fill="#FFC9B0" d="M185.208 168.173c4.766-.453 9.127-2.683 11.323-7.042 1.028-2.043 1.16-4.125 1.036-6.222-3.443-.686-7.204-1.544-10.522-2.519-9.111-2.682-10.139-1.895-14.539.242-1.791.865-5.288 2.3-8.894 3.758 4.766 7.432 12.499 12.648 21.603 11.783h-.007Z"/>
    <path fill="#FFC9B0" d="M197.567 154.909c-.911-.179-1.838-.374-2.781-.577-2.102 3.509-5.677 6.683-8.177 8.11-2.881 1.653-9.072 3.579-13.854 2.939 3.676 2.137 7.889 3.229 12.453 2.792 4.766-.452 9.127-2.682 11.323-7.041 1.028-2.043 1.16-4.125 1.036-6.223Z" opacity=".3" style="mix-blend-mode:multiply"/>
    <path fill="#FFC9B0" d="m191.749 138.042-20.38-3.501-1.246 21.982 19.446 3.236 2.18-21.717Z"/>
    <mask id="c" width="22" height="26" x="170" y="134" maskUnits="userSpaceOnUse" style="mask-type:luminance">
      <path fill="#fff" d="m191.749 138.042-20.38-3.501-1.246 21.982 19.446 3.236 2.18-21.717Z"/>
    </mask>
    <g mask="url(#c)">
      <path fill="#FFC9B0" d="M196.11 151.75c-16.619.757-24.804-18.472-24.375-19.283.537-1.006 2.134-.952 3.442-.686 9.205 1.855 22.172 6.823 23.83 10.901 1.659 4.078-.56 8.959-2.905 9.068h.008Z" style="mix-blend-mode:multiply"/>
    </g>
    <path fill="#FB4F4F" d="M210.658 99.592c.506.835.74 1.801.903 2.761.428 2.432.475 4.935.14 7.384-.148 1.068-.374 2.152-.926 3.08-.779 1.287-2.111 2.129-3.458 2.799-.833.414-1.807.78-2.671.429-.577-.234-.989-.756-1.278-1.31-.996-1.926-.708-4.234-.373-6.378.311-2.059.646-4.133 1.472-6.043.607-1.42 1.518-2.769 2.756-3.72 1.355-1.037 2.563-.429 3.427.998h.008Z"/>
    <path fill="#FB4F4F" d="M210.658 99.592c.506.835.74 1.801.903 2.761.428 2.432.475 4.935.14 7.384-.148 1.068-.374 2.152-.926 3.08-.779 1.287-2.111 2.129-3.458 2.799-.833.414-1.807.78-2.671.429-.577-.234-.989-.756-1.278-1.31-.996-1.926-.708-4.234-.373-6.378.311-2.059.646-4.133 1.472-6.043.607-1.42 1.518-2.769 2.756-3.72 1.355-1.037 2.563-.429 3.427.998h.008Z" opacity=".64" style="mix-blend-mode:multiply"/>
    <path fill="#FFC9B0" d="M209.513 126.408s-.008.055-.016.078c-.046.25-.093.491-.132.733-.537 2.792-2.36 9.786-4.486 14.09a20.19 20.19 0 0 1-.794 1.451c-2.959 4.811-6.487 6.41-15.451 4.164-15.801-3.954-28.106-21.725-20.193-41.149.179-.428.366-.857.552-1.271 2.531-5.434 6.815-9.95 11.814-12.359 13.24-6.378 28.823 1.965 29.493 21.327.147 4.554-.094 8.928-.787 12.936Z"/>
    <path fill="#FFC9B0" d="M210.299 113.472c-.21-6.137-1.923-11.159-4.587-14.964 2.617 19.042-2.297 33.935-5.708 39.838-1.822 3.158-4.447 6.48-7.554 9.342 6.222.889 9.135-.874 11.627-4.928.265-.437.53-.921.794-1.451 2.126-4.304 3.949-11.299 4.486-14.09.039-.242.086-.484.132-.733 0-.024 0-.055.016-.078.693-4.008.935-8.383.787-12.936h.007Z" opacity=".3" style="mix-blend-mode:multiply"/>
    <path fill="#FB4F4F" d="M209.497 126.486c-.046.25-.093.491-.132.733-.537 2.792-2.36 9.786-4.486 14.09-.934-.109-1.838-.506-2.359-1.271-.538-.795-.561-1.832-.468-2.799a15.426 15.426 0 0 1 4.229-9.201c.865-.897 2.017-1.723 3.216-1.552Zm-31.555 10.511a17.358 17.358 0 0 1-.561-.468c-2.959-2.666-6.3-8.156-3.302-12.281 1.48-2.035 4.252-2.581 6.44-1.715 2.189.865 3.832 2.893 4.891 5.154.794 1.684 1.324 3.579 1.184 5.489-.14 1.919-1.028 3.845-2.539 4.866-1.994 1.341-4.385.328-6.121-1.045h.008Z" opacity=".15"/>
    <path fill="#FB4F4F" d="M215.182 94.009c.016 2.558-1.814 4.912-4.166 6.043-3.637 1.762-6.106 1.622-11.884.92a14.375 14.375 0 0 1-1.347-.234c-5.537-1.185-12.173-5.209-16.401-2.729-2.882 1.684-4.377 4.46-4.961 7.322a15.268 15.268 0 0 0-.179 4.952c.537 4.14.358 5.177.459 7.127-.56 1.879-1.339 3.797-3.278 3.735-1.597-.055-2.773-3.696-4.346-3.915-1.09-.156-1.721.694-2.398 1.365-.328.32-.74.608-1.208.632-.21.015-.42-.032-.63-.102-1.908-5.848-3.497-12.219-2.056-18.324.046-.219.101-.437.163-.655.008-.039.024-.078.031-.117.117-.413.25-.819.39-1.209 1.487-4.148 4.447-7.587 8.138-10.035.444-.305.903-.585 1.371-.85a25.452 25.452 0 0 1 8.325-3.01c2.655-.468 5.373-.507 7.99-.055 1.098.187 2.204.57 3.201 1.06.42.203 2.492 1.194 2.499 1.693-.015-1.52 1.698-2.8 3.201-2.402 1.503.405 2.298 2.363 1.48 3.657 1.394-1.778 2.796-3.556 4.19-5.326.693-.889 1.767-1.887 2.819-1.442.732.312 1.004 1.177 1.09 1.941a8.973 8.973 0 0 1-.981 5.21c.576-.913 1.378-1.849 2.321-1.256 1.323.826-.094 2.854-.647 4.125 1.106-.998 2.407-2.074 3.902-1.918 1.768.179 2.897 2.066 2.912 3.797Z"/>
    <path fill="#FB4F4F" d="M212.94 90.368c-.982 3.205-3.38 5.817-6.986 6.87-3.022.88-6.308.771-9.4.467-3.06-.304-6.269-1.208-9.407-1.395-1.231.179-2.469.382-3.653.857-.187.078-.366.164-.545.242 4.579-1.06 11.035 2.94 16.191 3.571 5.778.702 8.239.842 11.884-.92 2.352-1.138 4.174-3.485 4.158-6.043-.007-1.497-.864-3.12-2.242-3.634v-.015Zm-33.838 9.497a12.368 12.368 0 0 0-2.843 3.75c-2.663 5.474.374 12.321-2.39 17.498 1.619-.218 2.328-1.972 2.834-3.703-.101-1.95.078-2.995-.451-7.135-.429-3.33.202-7.517 2.85-10.418v.008Z" opacity=".64" style="mix-blend-mode:multiply"/>
    <path fill="#FB4F4F" d="M189.358 93.674c-.381.538-.926.904-1.503 1.193-1.775.92-3.823 1.24-5.7 1.957a13.905 13.905 0 0 0-6.184 4.764c-.342.476-.67.983-1.16 1.295-.483.304-1.176.366-1.698-.039-.436-.351-.662-.952-1.067-1.349-.701-.718-1.791-.632-2.453-.094-.662.538-1.005 1.411-1.316 2.261-.249.663-.615 1.412-1.301 1.435-.841.024-1.495-1.014-1.752-1.918-.249-.905-.374-1.926-1.036-2.605a1.829 1.829 0 0 0-1.207-.545c.117-.414.25-.82.39-1.209 1.487-4.148 4.446-7.587 8.138-10.036.265.226.537.421.841.546.849.343 1.721.086 2.414-.327.709-.414 1.324-.99 2.064-1.334.553-.25 1.355-.28 1.737.32.163.25.21.554.342.827.265.561.888.865 1.433.904.545.047 1.067-.125 1.581-.257a11.579 11.579 0 0 1 4.159-.289c.747.07 1.503.234 2.188.632.693.398 1.301 1.084 1.495 1.887.172.717-.031 1.45-.405 1.98Z" opacity=".5" style="mix-blend-mode:screen"/>
    <path fill="#000" d="M203.33 122.923c-.195 1.232.257 2.331.996 2.448.748.117 1.503-.787 1.698-2.027.195-1.232-.257-2.332-.997-2.449-.747-.117-1.503.788-1.697 2.028Zm-17.873-2.34c-.195 1.233.257 2.332.997 2.449.747.117 1.503-.788 1.697-2.027.195-1.232-.257-2.332-.996-2.449-.748-.117-1.504.788-1.698 2.027Z"/>
    <path fill="#B92513" d="M198.579 132.841c-1.916-.148-3.847-.608-5.576-1.45-1.737-.85-3.208-2.027-4.618-3.33-.117-.109-.335.032-.234.18 2.196 3.275 6.565 5.154 10.428 4.998.257-.008.249-.374 0-.398Zm.864-6.947a5.156 5.156 0 0 0-1.464-.921c.359-1.216.717-2.432 1.06-3.657.35-1.247.708-2.503.88-3.789.023-.164-.219-.164-.273-.039-.498 1.224-.818 2.503-1.168 3.774a312.89 312.89 0 0 1-1.09 3.797c-.047.148.054.289.194.335.499.18.974.422 1.386.757.366.296.935.787.943 1.302 0 .515-.592.983-.958 1.271a5.08 5.08 0 0 1-1.425.78c-.211.078-.133.413.093.343a4.762 4.762 0 0 0 1.745-.897c.443-.358 1.02-.873 1.02-1.505 0-.624-.506-1.169-.935-1.559l-.008.008Z"/>
    <path fill="#FB4F4F" d="M203.15 113.791c-.428 1.302 1.13 1.146 3.45 1.949 2.321.811 2.469 3.307 3.17 3.205.701-.101.607-4.483-2.399-5.996-2.297-1.154-3.94-.023-4.228.834l.007.008Zm-6.892-1.356c.086 1.271-3.045.53-6.534 0-3.496-.531-6.401 2.284-6.666 1.169-.265-1.123 2.687-4.483 6.986-4.296 4.299.179 6.168 2.292 6.222 3.127h-.008Z"/>
    <path fill="#FB4F4F" d="M203.15 113.791c-.428 1.302 1.13 1.146 3.45 1.949 2.321.811 2.469 3.307 3.17 3.205.701-.101.607-4.483-2.399-5.996-2.297-1.154-3.94-.023-4.228.834l.007.008Zm-6.892-1.356c.086 1.271-3.045.53-6.534 0-3.496-.531-6.401 2.284-6.666 1.169-.265-1.123 2.687-4.483 6.986-4.296 4.299.179 6.168 2.292 6.222 3.127h-.008Z" opacity=".64" style="mix-blend-mode:multiply"/>
    <path fill="#FFC9B0" d="M171.236 118.899c-1.191-3.197-3.675-5.755-7.242-4.6-1.161.374-2.025 1.411-2.422 2.557-.397 1.154-.382 2.41-.21 3.611.443 3.041 2.001 6.004 4.563 7.704.966.639 2.196 1.099 3.287.701 1.495-.545 2.266-2.214 2.616-3.665.421-1.777.203-4.187-.592-6.316v.008Z"/>
    <path fill="#FFC9B0" d="M167.257 115.952c.872.912 1.347 2.167 2.18 3.056.584.624.958 1.544 1.963.492.008-.008.015-.024.023-.039-.062-.187-.117-.375-.187-.562-1.113-2.994-3.372-5.427-6.573-4.78.958.382 1.838 1.037 2.594 1.833Z" opacity=".3" style="mix-blend-mode:multiply"/>
    <path fill="#B92513" d="M163.822 117.316c.335-.242.74-.343 1.145-.312.935.062 1.729.717 2.228 1.482.514.795.872 1.731 1.16 2.635.296.944.436 1.942.382 2.932-.008.195-.343.195-.343 0-.023-1.63-.647-3.283-1.417-4.694a5.499 5.499 0 0 0-.405-.632 4.438 4.438 0 0 0-.795 2.301c-.062.998.172 1.902.483 2.838.031.094-.093.172-.156.086-1.145-1.646-1.074-4.008.211-5.544-.273-.297-.6-.538-.997-.655-.616-.188-1.48.015-1.846.584-.07.11-.265.024-.226-.101.101-.366.265-.686.584-.912l-.008-.008Z"/>
    <path fill="#fff" d="M166.657 118.836a2.526 2.526 0 0 0-2.64.383 2.528 2.528 0 0 0-.732 2.573c.234.756.81 1.349 1.363 1.91 2.056 2.074 5.856 6.277 6.339 6.379.483.101 1.682-1.014 1.527-1.614-.156-.601-2.929-3.034-3.754-4.734-.802-1.66.039-3.953-2.103-4.889v-.008Z"/>
    <path fill="#393B6B" d="M215.455 216.167c10.077-.631 18.231-8.819 23.721-17.014a38.049 38.049 0 0 0 2.594-4.515c-4.704-8.546-9.4-17.085-14.104-25.631-1.682-3.049-4.026-5.763-6.767-7.899-1.363-1.068-3.715-2.963-5.358-3.517-2.781-.928-4.533 5.341-4.782 7.509a287.293 287.293 0 0 0-.701 6.831c-.428 4.616-.747 9.24-.779 13.872-.007.312-.007.616-.007.928 0 9.833 1.113 20.017 4.805 26.894.467.866.926 1.708 1.378 2.542Z"/>
    <path fill="#393B6B" d="M215.455 216.167c10.077-.631 18.231-8.819 23.721-17.014a38.049 38.049 0 0 0 2.594-4.515c-4.704-8.546-9.4-17.085-14.104-25.631-1.682-3.049-4.026-5.763-6.767-7.899-1.363-1.068-3.715-2.963-5.358-3.517-2.781-.928-4.533 5.341-4.782 7.509a287.293 287.293 0 0 0-.701 6.831c-.428 4.616-.747 9.24-.779 13.872-.007.312-.007.616-.007.928 0 9.833 1.113 20.017 4.805 26.894.467.866.926 1.708 1.378 2.542Z" opacity=".2" style="mix-blend-mode:multiply"/>
    <path fill="#393B6B" d="M220.135 186.216c-.568-11.852-1.876-25.927-4.509-28.562-1.238-1.24-18.277-3.229-21.416-3.58-.249-.031-.428.219-.343.453 1.27 3.626-.093 7.712-7.655 8.507-8.598.904-13.8-2.285-20.139-7.696-.989-.85-22.981 7.813-25.326 11.922-4.369 7.642 5.491 39.457 6.713 52.385 1.223 12.929-.615 31.004-2.141 40.891 11.783 2.09 54.981 7.104 70.004-1.825 4.82-2.861 5.381-60.658 4.82-72.51l-.008.015Z"/>
    <path fill="#000" d="M188.237 166.52c10.28-1.505 8.668-10.504 7.834-12.227-.81-.094-1.448-.164-1.853-.211-.249-.031-.428.219-.343.452 1.27 3.626-.093 7.712-7.655 8.508-8.598.904-13.8-2.285-20.139-7.697-.273-.233-2.173.266-4.813 1.194 7.04 8.055 16.697 11.485 26.977 9.981h-.008Z"/>
    <path fill="#393B6B" d="M220.135 186.217c-.568-11.853-1.876-25.928-4.509-28.563-.763-.764-7.624-1.825-13.465-2.605 1.659 4.624 2.056 10.332 2.352 14.933.374 5.684.148 11.4-.81 17.014-2.024 11.853-7.297 23.261-13.745 33.335-6.183 9.662-14.119 17.935-24.414 23.167-6.052 3.073-12.367 4.804-18.831 5.934a224.965 224.965 0 0 1-1.402 11.12c11.783 2.09 54.981 7.104 70.004-1.825 4.82-2.862 5.389-60.658 4.82-72.51Z" opacity=".2" style="mix-blend-mode:multiply"/>
    <path fill="#000" d="M221.483 181.398c.288-.764.49-1.575.405-2.433-.507.694-.826 1.419-1.13 2.144a20.93 20.93 0 0 0-.584 1.731l-.327-3.641c-.179-1.684-.335-3.369-.537-5.053.031 1.7.109 3.392.163 5.084l.242 5.069c.21 3.376.202 6.752.21 10.137l.062 10.152c.032 3.384.047 6.768.125 10.16.242-3.384.374-6.768.475-10.152.101-3.384.109-6.776.117-10.16l-.101-5.085c-.047-1.692-.109-3.399-.288-5.084l-.094-1.037c.6-.483.989-1.154 1.27-1.832h-.008Z"/>
    <path fill="#FFC9B0" d="M255.367 231.669c-.646-4-2.842-7.634-5.693-10.512-.872-.881-1.822-1.707-2.951-2.23-2.266-1.052-5.187-.951-7.601-.6-3.084.452-6.043 1.52-9.018 2.402a992.87 992.87 0 0 0-8.31 2.503c-.63.195-1.456.631-2.11.655-5.366.226-38.791 1.614-44.671 1.247-4.594-7.602-9.976-27.221-9.976-27.221s-16.619.569-23.526 10.409c0-.28 13.558 32.876 16.159 34.88 2.601 2.004 16.378.888 33.371-2.114 12.857-2.269 24.095-4.85 28.806-5.965.608.257 1.301.46 2.088.601 8.379 1.504 8.145-3.97 8.613-4.242l-.156-.336a85.308 85.308 0 0 0 4.618 2.285c.631.289 1.503.507 1.916-.055.319-.436.101-1.052-.14-1.536a33.057 33.057 0 0 0-2.773-4.655c2.352 2.3 4.696 4.601 7.048 6.893.467.46 1.137.952 1.706.632.568-.312.514-1.139.35-1.77a19.363 19.363 0 0 0-4.486-8.203c1.55 1.731 3.092 3.462 4.642 5.193 1.059 1.185 2.126 2.378 3.294 3.462 1.051.975 2.422 1.918 3.808 1.56.179-.047.374-.133.452-.297.078-.156.039-.343 0-.514-.919-3.572-3.193-6.621-5.413-9.56 2.041 2.323 4.081 4.655 6.129 6.979.787.896 1.799 1.879 2.975 1.692.257-.039.514-.141.678-.343.28-.328.241-.819.179-1.248l-.008.008Z"/>
    <path fill="#FFC9B0" d="M165.255 223.395c2.43-2.292 4.175-4.772 5.6-7.431-3.17-8.39-5.818-18.044-5.818-18.044s-16.619.57-23.526 10.41c0-.187 5.693 13.677 10.404 23.994 4.906-1.279 10.023-5.81 13.333-8.929h.007Z" style="mix-blend-mode:multiply"/>
    <path fill="#FFC9B0" d="M231.023 229.743c-2.048.062-3.964.803-5.981 1.123-1.939.304-3.91.296-5.857.475-5.249.484-10.427 1.957-15.536 3.213-9.626 2.363-19.353 4.234-29.181 5.521-5.957.779-12.335 1.98-18.285.959.638 1.138 1.152 1.91 1.487 2.167 2.601 2.004 16.378.889 33.371-2.113 12.857-2.269 24.095-4.85 28.806-5.965.608.257 1.301.46 2.087.6 8.38 1.505 8.146-3.969 8.614-4.241l-.156-.336a84.945 84.945 0 0 0 4.618 2.285c.405.179.903.335 1.324.281-1.674-1.505-3.481-2.683-5.304-3.969h-.007Z" opacity=".3" style="mix-blend-mode:multiply"/>
    <path fill="#393B6B" d="M173.378 214.233c-1.044-2.503-8.925-24.929-11.518-33.233-1.363-4.383-2.975-8.835-5.989-12.367-2.134-2.519-8.387-8.391-14.929-2.308-.343.319-.677.662-1.005 1.005a18.83 18.83 0 0 0-1.012 1.225c-4.774 6.238-5.56 15.509-5.031 23.478.101 1.568.304 3.104.584 4.632 1.76 9.81 5.537 22.224 9.86 31.487 8.13.351 23.386-5.973 29.048-13.911l-.008-.008Z"/>
    <path fill="#393B6B" d="M158.753 173.475c-1.62-1.006-3.637-1.716-4.354.585-.381 1.208.242 3.009.452 4.241.693 4.04 1.511 8.055 2.087 12.11 1.199 8.406.382 16.82-1.581 25.054-.919 3.852-1.191 9.131-4.462 11.782 8.052-1.941 17.912-7.041 22.218-13.084-1.043-2.503-8.925-24.929-11.518-33.234-.786-2.526-1.666-5.068-2.842-7.454Z" opacity=".2" style="mix-blend-mode:multiply"/>
    <path fill="#000" d="M170.691 205.859c-.965-2.768-1.884-5.552-2.866-8.312-.996-2.761-1.923-5.537-2.943-8.281a809.79 809.79 0 0 0-3.014-8.266c.74 2.838 1.596 5.646 2.484 8.445.865 2.807 1.838 5.567 2.765 8.351.934 2.776 1.962 5.529 2.943 8.289.491 1.38 1.036 2.745 1.558 4.117.522 1.349 1.028 2.69 1.62 4.016a22.957 22.957 0 0 1-1.947 2.48 18.192 18.192 0 0 0 2.204-2.379l.039-.054-.024-.078-2.811-8.328h-.008Z"/>
    <path fill="#FFD245" d="M81.639 178.832c-1.106-8.492 1.822-15.899 10.7-15.899s14.002 10.651 15.108 19.135c1.106 8.492 7.134 46.209 9.914 48.619 4.953 4.281 35.333-.188 41.392 4.475 6.059 4.663 13.254 37.195 8.083 42.911-5.179 5.708-58.228 6.176-66.818 0-8.59-6.176-17.273-90.757-18.38-99.241Z"/>
    <path fill="#FFD245" d="M158.753 235.163c-6.059-4.663-36.439-.195-41.392-4.476-2.78-2.41-8.808-40.127-9.914-48.619-.958-7.353-4.929-16.32-11.744-18.589 1.558 2.432 2.687 5.45 3.17 6.846 2.258 6.589 3.738 13.677 4.54 20.601 1.371 11.868-.413 23.51-1.955 35.238-.973 7.416-2.577 18.403-10.52 21.225 2.787 15.681 5.941 28.431 9.088 30.692 8.589 6.176 61.639 5.708 66.818 0 5.179-5.708-2.017-38.248-8.084-42.911l-.007-.007Z" opacity=".3" style="mix-blend-mode:multiply"/>
    <path fill="#84A6F2" d="M437.319 276.279H38.012v19.705h399.307v-19.705Z"/>
    <path fill="#73A3EB" d="M437.319 276.271H38.012v11.408h399.307v-11.408Z" opacity=".49" style="mix-blend-mode:multiply"/>
    <path fill="#73A3EB" d="M454.079 247.319H20.739v36.126h433.34v-36.126Z"/>
    <path fill="#73A3EB" d="M454.335 273.62H20.995v9.747h433.34v-9.747Z" opacity=".3" style="mix-blend-mode:multiply"/>
    <g opacity=".3" style="mix-blend-mode:multiply">
      <path fill="#73A3EB" d="M270.358 253.697c39.772 0 72.013-1.218 72.013-2.721 0-1.503-32.241-2.722-72.013-2.722-39.771 0-72.013 1.219-72.013 2.722s32.242 2.721 72.013 2.721Z"/>
      <path fill="#73A3EB" d="M257.244 298.558a.782.782 0 0 1-.779-.78v-17.989c0-7.416-3.45-10.878-10.864-10.878-5.186 0-8.784-.998-10.677-2.956-.95-.982-1.433-2.198-1.394-3.508.055-1.677 1.036-5.568 8.917-5.568 12.39 0 17.865-.491 17.865-2.137 0-1.645-3.146-1.91-5.015-1.91h-3.629a.782.782 0 0 1-.779-.78c0-.429.351-.78.779-.78h3.629c4.12 0 6.573 1.178 6.573 3.135 0 4.071-6.9 4.032-19.423 4.032-4.657 0-7.274 1.442-7.359 4.062-.031.889.288 1.684.95 2.371 1.09 1.13 3.637 2.479 9.555 2.479 8.24 0 12.422 4.188 12.422 12.438v17.989c0 .429-.351.78-.779.78h.008Z"/>
    </g>
    <path fill="#7CF7E8" d="M353.189 182.349H269.79a3.925 3.925 0 0 0-3.676 2.549l-22.405 59.894h89.847l22.055-58.95c.63-1.692-.616-3.501-2.422-3.501v.008ZM336.601 244.8H203.898v6.23h132.703v-6.23Z"/>
    <path fill="#57D9CD" d="M219.699 250.18c-3.372-.67-9.898-2.316-13.597-5.388h-2.204v6.23h20.645c-1.635-.241-3.255-.53-4.844-.842Z" opacity=".32" style="mix-blend-mode:multiply"/>
    <path fill="#57D9CD" d="M336.593 244.8h-89.847v6.23h89.847v-6.23Zm19.641-62.451h-83.399a3.924 3.924 0 0 0-3.676 2.549l-22.405 59.894h89.847l22.055-58.95c.63-1.692-.616-3.501-2.422-3.501v.008Z"/>
    <path fill="#57D9CD" d="M356.233 182.349h-70.26c34.164.865 52.427 1.902 59.451 2.939 7.025 1.037 11.752 2.589 10.529 7.782l2.702-7.22c.631-1.692-.615-3.501-2.422-3.501Z" opacity=".22" style="mix-blend-mode:overlay"/>
    <path fill="#57D9CD" d="M337.045 239.825c-18.387 4.999-41.945 3.759-56.64-9.731-7.796-7.158-11.589-18.083-11.441-28.524.086-5.887 1.169-13.163 3.91-19.221h-.031a3.924 3.924 0 0 0-3.676 2.549l-22.405 59.894h89.847l2.024-5.419c-.529.156-1.059.312-1.581.452h-.007Z" opacity=".32" style="mix-blend-mode:multiply"/>
    <path fill="#393B6B" d="M253.872 247.911c0 .952-.771 1.716-1.714 1.716a1.72 1.72 0 0 1-1.713-1.716 1.72 1.72 0 0 1 1.713-1.715 1.72 1.72 0 0 1 1.714 1.715Z"/>
    <path fill="#73A3EB" d="M253.303 247.911c0 .632-.514 1.147-1.145 1.147a1.148 1.148 0 0 1 0-2.293c.631 0 1.145.515 1.145 1.146Z"/>
    <path fill="#FFD245" d="M257.921 297.536a.781.781 0 0 1-.778-.78v-17.989c0-7.416-3.45-10.878-10.864-10.878-5.187 0-8.785-.998-10.677-2.955-.95-.983-1.433-2.199-1.394-3.509.054-1.677 1.036-5.568 8.917-5.568 12.39 0 17.865-.164 17.865-3.953 0-2.769-3.147-3.182-5.016-3.182h-3.629a.78.78 0 0 1 0-1.559h3.629c4.12 0 6.573 1.77 6.573 4.741 0 5.513-6.9 5.513-19.422 5.513-4.657 0-7.274 1.442-7.36 4.062-.031.889.296 1.684.95 2.371 1.091 1.13 3.637 2.479 9.556 2.479 8.239 0 12.421 4.188 12.421 12.438v17.989c0 .429-.35.78-.778.78h.007Z"/>
    <path fill="#FFD245" d="M256.932 275.905c.133.881.211 1.832.211 2.861v17.99c0 .428.35.779.779.779a.781.781 0 0 0 .778-.779v-17.99c0-1.458-.14-2.776-.397-3.976a5.978 5.978 0 0 1-1.371 1.115Z" style="mix-blend-mode:multiply"/>
    <path fill="#fff" d="M290.692 211.442c-1.861 6.542-7.998 11.595-13.698 11.291-5.701-.304-8.816-5.856-6.947-12.391 1.861-6.542 7.998-11.595 13.699-11.291 5.7.304 8.815 5.856 6.946 12.391Z"/>
    <path fill="#FB4F4F" d="M288.808 211.34c-1.527 5.349-6.542 9.474-11.199 9.225-4.665-.25-7.204-4.788-5.677-10.129 1.526-5.35 6.541-9.475 11.198-9.225 4.665.249 7.204 4.788 5.678 10.129Z" opacity=".43"/>
    <path fill="#393B6B" d="m303.347 216.417-19.298 9.786c-.856.436-1.697-.008-1.892-.991l-1.238-6.386c-.187-.982.35-2.129 1.207-2.558l19.298-9.786c.856-.436 1.697.008 1.892.991l1.238 6.386c.187.983-.35 2.129-1.207 2.558Z"/>
    <path fill="#393B6B" d="m302.724 215.84-18.13 9.201c-.716.367-1.425-.008-1.581-.826l-1.035-5.342c-.156-.819.288-1.778 1.004-2.144l18.13-9.201c.717-.367 1.425.007 1.581.826l1.036 5.342c.156.818-.288 1.777-1.005 2.144Z" style="mix-blend-mode:screen"/>
    <path fill="#73A3EB" d="M301.836 211.005c-.21-.39-.849-.304-.95.125-.171.686-.054 1.396-.202 2.09-.055.241-.117.811-.304.967-.296.226-.794-.032-1.114-.102-1.285-.296-2.102.14-2.959 1.084-.335.367-.53.483-1.012.289-.257-.102-.475-.234-.748-.305a3.57 3.57 0 0 0-1.877.024c-.997.281-1.884.99-2.453 1.871-.164-.117-.319-.234-.475-.335-1.044-.694-2.391-1.17-3.582-.53-2.197 1.185-2.82 5.216-.561 6.636.568.358 1.075-.523.522-.897-1.13-.772-.896-2.69-.281-3.704.849-1.38 2.173-1.068 3.318-.242.187.133.35.289.506.445-.14.74-.054 1.536.506 2.05.826.757 1.971-.054 1.823-1.083-.078-.554-.405-1.053-.81-1.498.031-.054.046-.101.085-.156.67-1.044 2.01-1.793 3.217-1.255.919.406 1.549.725 2.391-.07.404-.382.7-.951 1.253-1.123.561-.172 1.168.156 1.737.234 1.005.14 1.534-.359 1.869-1.271.351-.975.607-2.285.101-3.236v-.008Z"/>
    <path fill="#FFD245" d="M285.381 209.999c-1.441.289-2.952-.468-3.847-1.629-.888-1.17-1.231-2.675-1.262-4.149.062 3.423-2.461 6.511-5.202 8.188 1.254-.46 2.29-.164 3.232.273.942.436 1.651 1.302 2.087 2.245.444.944.654 1.981.857 3.01-.078-1.575.179-3.181.864-4.6.685-1.42 1.83-2.652 3.255-3.33l.016-.008Z"/>
    <path fill="#73A3EB" d="M319.951 262.68c21.488 0 38.907-1.218 38.907-2.721 0-1.503-17.419-2.722-38.907-2.722-21.488 0-38.908 1.219-38.908 2.722s17.42 2.721 38.908 2.721Z" opacity=".3" style="mix-blend-mode:multiply"/>
    <path fill="#FFD245" d="M333.26 250.298v10.199h-46.236a1.81 1.81 0 0 1-1.807-1.809v-6.581c0-.998.81-1.809 1.807-1.809h46.236Z"/>
    <path fill="#FFD245" d="M323.65 250.29h-31.54c-.514 2.207-.802 7.876.202 10.199h31.315c-.514-3.392-.429-6.628.031-10.199h-.008Z" style="mix-blend-mode:multiply"/>
    <path fill="#FFD245" d="M356 251.319v-1.029h-22.74v10.207H356v-1.029h-9.524v-8.149H356Z"/>
    <path fill="#FFD245" d="M356 251.319v-1.029h-22.74v10.207H356v-1.029h-9.524v-8.149H356Z" style="mix-blend-mode:multiply"/>
    <path fill="#DFFAFF" d="M355.198 251.312v8.148h-19.882a1.134 1.134 0 0 1-1.137-1.138v-5.872c0-.632.506-1.138 1.137-1.138h19.882Z"/>
    <path fill="#FB4F4F" d="M331.204 240.324v10.2h-46.236a1.81 1.81 0 0 1-1.807-1.809v-6.582c0-.998.81-1.809 1.807-1.809h46.236Z"/>
    <path fill="#B92513" d="M353.936 241.354v-1.022h-22.732v10.199h22.732v-1.029h-9.524v-8.148h9.524Z"/>
    <path fill="#DFFAFF" d="M353.142 241.354v8.148H333.26a1.134 1.134 0 0 1-1.137-1.138v-5.872c0-.632.506-1.138 1.137-1.138h19.882Z"/>
    <path fill="#B92513" d="M287.935 250.633a1.007 1.007 0 0 1-1.004-1.006v-8.539c0-.553.451-1.005 1.004-1.005.553 0 1.005.452 1.005 1.005v8.539c0 .554-.452 1.006-1.005 1.006Zm38.986 0a1.008 1.008 0 0 1-1.005-1.006v-8.539c0-.553.452-1.005 1.005-1.005.553 0 1.004.452 1.004 1.005v8.539c0 .554-.451 1.006-1.004 1.006Z"/>
    <path fill="#73A3EB" d="M399.969 262.072c14.035 0 25.412-1.219 25.412-2.722s-11.377-2.721-25.412-2.721c-14.034 0-25.411 1.218-25.411 2.721 0 1.503 11.377 2.722 25.411 2.722Z" opacity=".3" style="mix-blend-mode:multiply"/>
    <path fill="#393B6B" d="m393.336 181.3 2.792 2.796 10.397-10.41-2.792-2.796-10.397 10.41Z"/>
    <path fill="#393B6B" d="m394.737 182.7 1.398 1.401 10.397-10.41-1.398-1.401-10.397 10.41Z" opacity=".33" style="mix-blend-mode:multiply"/>
    <path fill="#393B6B" d="m396.539 169.65-2.792 2.796 39.61 39.66 2.792-2.795-39.61-39.661Z"/>
    <path fill="#393B6B" d="m396.532 169.655-1.206 1.208 39.61 39.66 1.206-1.207-39.61-39.661Z" opacity=".33" style="mix-blend-mode:multiply"/>
    <path fill="#393B6B" d="m436.68 213.255-2.792-2.796-39.61 39.661 2.792 2.796 39.61-39.661Z"/>
    <path fill="#393B6B" d="m436.666 213.26-1.123-1.125-39.61 39.66 1.123 1.125 39.61-39.66Z" opacity=".33" style="mix-blend-mode:multiply"/>
    <path fill="#393B6B" d="M438.643 210.833a3.951 3.951 0 0 1-3.948 3.954 3.951 3.951 0 0 1-3.949-3.954 3.951 3.951 0 0 1 3.949-3.953 3.95 3.95 0 0 1 3.948 3.953Z"/>
    <path fill="#393B6B" d="M437.779 208.4c.008 2.464-1.721 4.336-3.933 5.295-.421.187-.88.335-1.347.429a3.953 3.953 0 0 0 2.18.663 3.951 3.951 0 0 0 3.949-3.954c0-.92-.327-1.762-.857-2.433h.008Z" opacity=".33" style="mix-blend-mode:multiply"/>
    <path fill="#73A3EB" d="M436.922 210.834a2.232 2.232 0 0 1-2.235 2.238 2.237 2.237 0 0 1-2.235-2.238c0-1.232.997-2.238 2.235-2.238s2.235.998 2.235 2.238Z"/>
    <path fill="#393B6B" d="M404.486 176.797a3.95 3.95 0 0 1-3.948 3.953 3.951 3.951 0 0 1-3.949-3.953 3.951 3.951 0 0 1 3.949-3.954c2.18 0 3.948 1.77 3.948 3.954Z"/>
    <path fill="#393B6B" d="M403.63 174.364c.007 2.464-1.721 4.335-3.933 5.294-.421.188-.88.336-1.347.429a3.945 3.945 0 0 0 2.18.663 3.951 3.951 0 0 0 3.949-3.953c0-.92-.328-1.763-.857-2.433h.008Z" opacity=".33" style="mix-blend-mode:multiply"/>
    <path fill="#73A3EB" d="M402.773 176.797a2.231 2.231 0 0 1-2.235 2.237 2.231 2.231 0 0 1-2.235-2.237 2.236 2.236 0 1 1 4.47 0Z"/>
    <path fill="#393B6B" d="M383.265 248.489h29.165c3.644 0 6.604 2.963 6.604 6.612v4.359h-42.381v-4.359c0-3.649 2.959-6.612 6.604-6.612h.008Z"/>
    <path fill="#393B6B" d="M416.106 249.604c-2.282 1.863-5.288 3.298-7.375 4.124-5.148 2.028-10.592 3.096-16.074 3.689-3.178.343-6.441.663-9.634.647-2.18-.016-4.26-.367-6.362-.702v2.106h42.381v-4.359a6.605 6.605 0 0 0-2.929-5.498l-.007-.007Z" opacity=".33" style="mix-blend-mode:multiply"/>
    <path fill="#fff" d="m391.901 260.918 3.053-52.892-26.307-18.714-93.079 70.452c-.763.577-.732 1.84.148 2.23 18.839 8.304 103.351 8.577 116.185-1.076Z" opacity=".5" style="mix-blend-mode:overlay"/>
    <path fill="#393B6B" d="m365.922 189.475 29.733 20.781s11.697-23.588-1.698-31.074c-13.395-7.485-28.035 10.293-28.035 10.293Z"/>
    <path fill="#393B6B" d="M393.957 179.182a14.052 14.052 0 0 0-1.814-.842c2.975 5.732 1.698 13.927-.288 19.58a30.25 30.25 0 0 1-3.668 7.12l7.468 5.216s11.697-23.588-1.698-31.074Z" opacity=".33" style="mix-blend-mode:multiply"/>
    <path fill="#73A3EB" d="M87.939 261.121c19.071 0 34.531-1.218 34.531-2.721 0-1.503-15.46-2.722-34.531-2.722-19.07 0-34.53 1.219-34.53 2.722s15.46 2.721 34.53 2.721Z" opacity=".3" style="mix-blend-mode:multiply"/>
    <path fill="#D0E7FF" d="M117.836 257.815H73.571l-7.788-33.99h44.265l7.788 33.99Z"/>
    <path fill="#73A3EB" d="M109.908 253.479c-2.173-7.517-1.41-16.734 1.371-24.289l-1.231-5.357H65.783l7.788 33.99h37.91a36.046 36.046 0 0 1-1.581-4.344h.008Z" opacity=".15" style="mix-blend-mode:multiply"/>
    <path fill="#fff" d="M110.04 223.825H65.775l-7.788 34.886h44.266l7.787-34.886Z"/>
    <path fill="#73A3EB" d="M102.93 248.863c-7.017 2.16-14.563 3.275-21.572.429-6.246-2.534-11.12-8.117-13.262-14.473-.981-2.916-1.807-7.337-1.145-10.994h-1.176l-7.788 34.886h44.266l2.313-10.363c-.553.18-1.098.351-1.636.515Z" opacity=".15" style="mix-blend-mode:multiply"/>
    <path fill="#393B6B" d="M71.647 223.825h-1.098c-.047-.109-.07-.226-.11-.351a1.395 1.395 0 0 0-.194-.39 1.662 1.662 0 0 0-.646-.577 1.633 1.633 0 0 0-.88-.148 1.74 1.74 0 0 0-.834.296c-.28.203-.49.507-.638.819a1.546 1.546 0 0 0-.117.351 1.202 1.202 0 0 0-.015.499c.054.304.186.569.381.819.086.117.203.202.304.304.109.109.272.226.296.382.015.086 0 .203-.07.265-.343.273-.834-.031-1.122-.265a2.382 2.382 0 0 1-.677-.975 2.131 2.131 0 0 1-.133-1.029c.117-1.193 1.13-2.316 2.306-2.542a2.787 2.787 0 0 1 2.99 1.396c.195.343.374.764.257 1.146Zm6.877 0h-1.099c-.046-.109-.07-.226-.108-.351a1.395 1.395 0 0 0-.195-.39 1.662 1.662 0 0 0-.647-.577 1.633 1.633 0 0 0-.88-.148 1.74 1.74 0 0 0-.833.296c-.28.203-.49.507-.638.819a1.546 1.546 0 0 0-.117.351 1.202 1.202 0 0 0-.016.499c.055.304.187.569.382.819.085.117.202.202.303.304.11.109.273.226.296.382.016.086 0 .203-.07.265-.342.273-.833-.031-1.121-.265a2.382 2.382 0 0 1-.678-.975 2.134 2.134 0 0 1-.132-1.029c.117-1.193 1.13-2.316 2.305-2.542a2.787 2.787 0 0 1 2.99 1.396c.195.343.374.764.258 1.146Zm6.876 0h-1.098c-.047-.109-.07-.226-.109-.351a1.391 1.391 0 0 0-.195-.39 1.663 1.663 0 0 0-.646-.577 1.633 1.633 0 0 0-.88-.148 1.74 1.74 0 0 0-.833.296c-.28.203-.491.507-.639.819a1.546 1.546 0 0 0-.117.351 1.2 1.2 0 0 0-.015.499c.054.304.187.569.381.819.086.117.203.202.304.304.109.109.273.226.296.382.016.086 0 .203-.07.265-.343.273-.833-.031-1.122-.265a2.382 2.382 0 0 1-.677-.975 2.135 2.135 0 0 1-.133-1.029c.117-1.193 1.13-2.316 2.306-2.542a2.787 2.787 0 0 1 2.99 1.396c.195.343.374.764.257 1.146Zm6.869 0H91.17c-.047-.109-.07-.226-.11-.351a1.392 1.392 0 0 0-.194-.39 1.662 1.662 0 0 0-.646-.577 1.633 1.633 0 0 0-.88-.148 1.74 1.74 0 0 0-.834.296c-.28.203-.49.507-.638.819a1.55 1.55 0 0 0-.117.351 1.204 1.204 0 0 0-.016.499c.055.304.187.569.382.819.086.117.202.202.304.304.109.109.272.226.296.382.015.086 0 .203-.07.265-.343.273-.834-.031-1.122-.265a2.382 2.382 0 0 1-.677-.975 2.123 2.123 0 0 1-.133-1.029c.117-1.193 1.13-2.316 2.305-2.542a2.787 2.787 0 0 1 2.99 1.396c.196.343.375.764.258 1.146Zm6.876 0h-1.098c-.046-.109-.07-.226-.109-.351a1.39 1.39 0 0 0-.194-.39 1.662 1.662 0 0 0-.647-.577 1.633 1.633 0 0 0-.88-.148 1.74 1.74 0 0 0-.833.296c-.28.203-.49.507-.639.819a1.55 1.55 0 0 0-.116.351 1.204 1.204 0 0 0-.016.499c.055.304.187.569.382.819.085.117.202.202.303.304.11.109.273.226.296.382.016.086 0 .203-.07.265-.342.273-.833-.031-1.121-.265a2.382 2.382 0 0 1-.678-.975 2.13 2.13 0 0 1-.132-1.029c.117-1.193 1.13-2.316 2.305-2.542a2.787 2.787 0 0 1 2.99 1.396c.195.343.374.764.257 1.146Zm6.877 0h-1.098c-.047-.109-.07-.226-.109-.351a1.402 1.402 0 0 0-.195-.39 1.665 1.665 0 0 0-.646-.577 1.633 1.633 0 0 0-.88-.148 1.737 1.737 0 0 0-.833.296c-.281.203-.491.507-.639.819a1.508 1.508 0 0 0-.117.351 1.187 1.187 0 0 0-.015.499c.054.304.186.569.381.819.086.117.203.202.304.304.109.109.272.226.296.382.015.086 0 .203-.07.265-.343.273-.834-.031-1.122-.265a2.385 2.385 0 0 1-.677-.975 2.123 2.123 0 0 1-.133-1.029c.117-1.193 1.13-2.316 2.305-2.542a2.787 2.787 0 0 1 2.991 1.396c.195.343.374.764.257 1.146Z"/>
    <path fill="#73A3EB" d="M127.703 265.214c9.449 0 17.11-1.218 17.11-2.721 0-1.503-7.661-2.722-17.11-2.722s-17.11 1.219-17.11 2.722 7.661 2.721 17.11 2.721Z" opacity=".3" style="mix-blend-mode:multiply"/>
    <path fill="#57D9CD" d="M123.42 217.29h8.566c3.754 0 6.799 3.049 6.799 6.807v36.431a2.264 2.264 0 0 1-2.266 2.269h-17.64a2.265 2.265 0 0 1-2.266-2.269v-36.431c0-3.758 3.045-6.807 6.799-6.807h.008Z"/>
    <path fill="#57D9CD" d="M138.302 221.586c-.047 1.7-.148 3.322-.257 4.773-.576 7.743-2.04 16.258-7.141 22.41-3.52 4.242-9.844 7.447-13.94 2.183-.117-.156-.226-.319-.335-.475v10.043a2.264 2.264 0 0 0 2.266 2.269h17.639a2.265 2.265 0 0 0 2.267-2.269v-36.431a6.74 6.74 0 0 0-.483-2.51l-.016.007Z" opacity=".32" style="mix-blend-mode:multiply"/>
    <path fill="#393B6B" d="M133.785 210.997h-.786v-2.37c0-.593-.483-1.076-1.075-1.076h-8.442c-.592 0-1.075.483-1.075 1.076v2.37h-.786c-.592 0-1.075.484-1.075 1.076v4.546c0 .593.483 1.077 1.075 1.077h12.172c.592 0 1.075-.484 1.075-1.077v-4.546c0-.592-.483-1.076-1.075-1.076h-.008Z"/>
    <path fill="#393B6B" d="M133.785 210.997h-.786v-2.37c0-.593-.483-1.076-1.075-1.076h-1.869c.031 2.557-.685 5.201-1.861 6.807-.826 1.131-1.971 2.41-3.295 3.338h8.886c.592 0 1.075-.484 1.075-1.077v-4.546c0-.592-.483-1.076-1.075-1.076Z" opacity=".33" style="mix-blend-mode:multiply"/>
    <path fill="#57D9CD" d="M119.666 221.672c-.646 1.037-.545 2.924-.054 2.979.303.031.35-.905.607-1.778.164-.553.257-.99.46-1.505.202-.514-.499-.514-1.013.304Zm-.825 7.423c.07-.592.155-1.185.249-1.762.054-.327.124-.655.296-.936.054-.093.132-.187.241-.194.421-.047.312 1.848.312 2.105.015 1.559.015 3.119.023 4.678 0 1.56 0 3.096-.327 4.625-.047.226-.405.226-.46 0-.646-2.714-.662-5.685-.334-8.508v-.008Z" style="mix-blend-mode:overlay"/>
    <path fill="#393B6B" d="M138.614 256.271a.678.678 0 0 1 0 1.356h-21.643a.678.678 0 0 1 0-1.356"/>
    <path fill="#7179CE" d="M269.011 130.486h39.305a5.634 5.634 0 0 0 5.63-5.637v-20.867a5.634 5.634 0 0 0-5.63-5.638h-39.305a5.634 5.634 0 0 0-5.63 5.638v20.867a5.634 5.634 0 0 0 5.63 5.637Z"/>
    <path fill="#7179CE" d="M309.126 140.085v-11.392h-11.378l11.378 11.392Z"/>
    <path fill="#FFD245" d="M296.331 110.976a7.676 7.676 0 0 0-9.206-7.524c-3.037.592-5.467 3.08-6.004 6.129-.483 2.744.499 5.286 2.282 6.971.568.538.888 1.271.841 2.051-.055.779.132 1.629.74 2.557.786 1.209 2.087 2.067 3.528 2.113a4.429 4.429 0 0 0 4.579-4.429v-.015c0-.874.265-1.731.895-2.34a7.667 7.667 0 0 0 2.345-5.52v.007Z"/>
    <path fill="#fff" d="M290.389 122.93a.273.273 0 0 1-.265-.218 21.05 21.05 0 0 1 .031-8.547c-.756.156-1.534.024-2.072-.39a.713.713 0 0 1-.093-.078 2.69 2.69 0 0 1-.849.422l.023.116c.546 2.714.693 5.482.452 8.235-.015.148-.132.257-.288.242a.264.264 0 0 1-.241-.289 28.167 28.167 0 0 0-.444-8.078l-.024-.117c-.428.046-.872 0-1.269-.156-1.075-.414-1.713-1.544-1.449-2.566.102-.382.405-.842.927-.865.288-.024.608.125.911.429.709.701 1.059 1.606 1.285 2.534.242-.078.46-.187.647-.328-.405-.733-.569-1.887-.289-2.612.18-.46.522-.702.966-.655.475.047.693.32.787.546.35.819-.312 2.215-.732 2.753 0 .007-.016.015-.024.023.008 0 .016.016.024.023.514.39 1.261.406 1.876.226.18-.748.398-1.481.662-2.214.102-.296.218-.577.46-.811.249-.242.685-.421 1.098-.257a.897.897 0 0 1 .561.865c0 .32-.148.593-.281.827-.521.928-1.129 1.551-1.853 1.91-.062.031-.125.055-.187.086a20.595 20.595 0 0 0-.094 8.616.267.267 0 0 1-.21.32h-.054l.008.008Zm-5.514-11.743h-.016c-.249.015-.389.304-.436.467-.195.749.312 1.615 1.122 1.926.295.117.63.156.957.125-.21-.834-.521-1.645-1.137-2.253-.179-.18-.342-.273-.482-.273l-.008.008Zm7.312-.406a.632.632 0 0 0-.404.172c-.156.148-.242.358-.328.6-.21.577-.389 1.162-.537 1.747.53-.328.989-.842 1.402-1.575.101-.18.21-.382.21-.577 0-.133-.062-.297-.218-.351a.356.356 0 0 0-.132-.024l.007.008Zm-3.932-.234c-.117 0-.257.055-.366.312-.203.507-.094 1.411.179 2.004.397-.569.786-1.622.584-2.097-.039-.094-.117-.203-.343-.227h-.047l-.007.008Z"/>
    <path fill="#C6E3FF" d="M292.047 121.823h-6.705a.46.46 0 0 0-.459.46v.398c0 .254.205.46.459.46h6.705a.46.46 0 0 0 .46-.46v-.398a.46.46 0 0 0-.46-.46Z"/>
    <path fill="#C6E3FF" d="M292.047 123.047h-6.705a.46.46 0 0 0-.459.46v.398c0 .254.205.46.459.46h6.705a.46.46 0 0 0 .46-.46v-.398a.46.46 0 0 0-.46-.46Z"/>
    <path fill="#C6E3FF" d="M292.047 124.271h-6.705a.46.46 0 0 0-.459.461v.397c0 .254.205.46.459.46h6.705a.46.46 0 0 0 .46-.46v-.397a.46.46 0 0 0-.46-.461Z"/>
    <path fill="#84A6F2" d="M239.496 158.683H278.8a5.634 5.634 0 0 0 5.631-5.638v-20.867a5.634 5.634 0 0 0-5.631-5.637h-39.304a5.634 5.634 0 0 0-5.631 5.637v20.867a5.634 5.634 0 0 0 5.631 5.638Z"/>
    <path fill="#84A6F2" d="M279.618 168.282v-11.393H268.24l11.378 11.393Z"/>
    <path fill="#1B2D5E" d="M264.159 133.73h-21.984v3.345h21.984v-3.345Z"/>
    <path fill="#fff" d="M276.129 140.522h-33.954v1.591h33.954v-1.591Zm-2.398 4.694h-31.556v1.591h31.556v-1.591Zm1.643 4.702h-33.199v1.591h33.199v-1.591Z"/>
  </g>
  <defs>
    <clipPath id="a">
      <path fill="#fff" d="M0 0h464v298.557H0z"/>
    </clipPath>
  </defs>
</svg>
