<svg xmlns="http://www.w3.org/2000/svg" width="247" height="59" fill="none" viewBox="0 0 247 59">
  <rect width="246" height="58" x=".5" y=".5" fill="#fff" rx="7.5"/>
  <rect width="246" height="58" x=".5" y=".5" stroke="#CEDFFF" rx="7.5"/>
  <path fill="#FED26C" d="M17.024 12.963a.5.5 0 0 1 .951 0l1.209 3.72a.5.5 0 0 0 .475.345h3.91a.5.5 0 0 1 .294.904L20.7 20.231a.5.5 0 0 0-.182.559l1.209 3.719a.5.5 0 0 1-.77.559l-3.163-2.299a.5.5 0 0 0-.588 0l-3.163 2.299a.5.5 0 0 1-.77-.56l1.209-3.718a.5.5 0 0 0-.182-.56l-3.164-2.298a.5.5 0 0 1 .294-.904h3.91a.5.5 0 0 0 .476-.346l1.208-3.718Zm20.001 0a.5.5 0 0 1 .95 0l1.209 3.72a.5.5 0 0 0 .475.345h3.91a.5.5 0 0 1 .294.904L40.7 20.231a.5.5 0 0 0-.182.559l1.209 3.719a.5.5 0 0 1-.77.559l-3.163-2.299a.5.5 0 0 0-.588 0l-3.163 2.299a.5.5 0 0 1-.77-.56l1.209-3.718a.5.5 0 0 0-.182-.56l-3.163-2.298a.5.5 0 0 1 .293-.904h3.91a.5.5 0 0 0 .476-.346l1.209-3.718Zm20 0a.5.5 0 0 1 .95 0l1.209 3.72a.5.5 0 0 0 .475.345h3.91a.5.5 0 0 1 .294.904L60.7 20.231a.5.5 0 0 0-.182.559l1.209 3.719a.5.5 0 0 1-.77.559l-3.163-2.299a.5.5 0 0 0-.588 0l-3.163 2.299a.5.5 0 0 1-.77-.56l1.209-3.718a.5.5 0 0 0-.182-.56l-3.163-2.298a.5.5 0 0 1 .293-.904h3.91a.5.5 0 0 0 .476-.346l1.209-3.718Z"/>
  <path fill="#D9D9D9" d="M77.025 12.963a.5.5 0 0 1 .95 0l1.209 3.72a.5.5 0 0 0 .475.345h3.91a.5.5 0 0 1 .294.904L80.7 20.231a.5.5 0 0 0-.182.559l1.209 3.719a.5.5 0 0 1-.77.559l-3.163-2.299a.5.5 0 0 0-.588 0l-3.163 2.299a.5.5 0 0 1-.77-.56l1.209-3.718a.5.5 0 0 0-.182-.56l-3.163-2.298a.5.5 0 0 1 .293-.904h3.91a.5.5 0 0 0 .476-.346l1.209-3.718Zm20 0a.5.5 0 0 1 .95 0l1.209 3.72a.5.5 0 0 0 .475.345h3.911a.5.5 0 0 1 .294.904l-3.164 2.299a.5.5 0 0 0-.182.559l1.209 3.719a.5.5 0 0 1-.77.559l-3.163-2.299a.5.5 0 0 0-.588 0l-3.163 2.299a.5.5 0 0 1-.77-.56l1.209-3.718a.5.5 0 0 0-.182-.56l-3.163-2.298a.5.5 0 0 1 .293-.904h3.91a.5.5 0 0 0 .476-.346l1.209-3.718Z"/>
  <path fill="#1B3DBC" d="M12.744 36.955V43.5h-1.186v-5.392h-.038l-1.531.978V38l1.627-1.045h1.128Zm3.938 6.635c-.427 0-.808-.08-1.145-.24a2.039 2.039 0 0 1-.802-.665 1.76 1.76 0 0 1-.313-.965h1.15a.907.907 0 0 0 .349.658c.21.169.464.253.76.253a1.2 1.2 0 0 0 .62-.16c.182-.107.324-.255.429-.444.104-.19.155-.406.153-.65a1.31 1.31 0 0 0-.156-.658 1.172 1.172 0 0 0-.438-.45 1.222 1.222 0 0 0-.64-.166 1.523 1.523 0 0 0-.578.108c-.19.075-.34.173-.45.294l-1.071-.175.342-3.375h3.797v.99h-2.816l-.189 1.736h.039a1.35 1.35 0 0 1 .514-.355c.222-.096.465-.144.729-.144a1.99 1.99 0 0 1 1.796 1.048c.18.326.268.7.268 1.12 0 .432-.1.817-.3 1.156a2.124 2.124 0 0 1-.828.796c-.351.192-.758.288-1.22.288Zm5.529.728v-8.182h.524v8.182h-.524Zm1.511-5.564a.873.873 0 0 0-.377-.652c-.22-.156-.505-.233-.856-.233-.248 0-.46.037-.636.111a.941.941 0 0 0-.406.304.738.738 0 0 0-.051.793c.063.1.15.185.258.255.11.069.23.126.362.173.132.047.265.086.4.118l.613.154c.247.057.485.135.712.233.23.098.436.221.617.37.183.15.328.33.435.54.107.212.16.459.16.742 0 .384-.098.721-.294 1.013-.196.29-.48.517-.85.681-.369.162-.815.243-1.34.243-.509 0-.95-.079-1.326-.236a1.975 1.975 0 0 1-.876-.69c-.208-.303-.321-.672-.338-1.107h1.166a.991.991 0 0 0 .211.57c.124.15.285.264.483.338.2.075.424.112.67.112.259 0 .485-.038.678-.115.197-.079.35-.188.46-.326a.787.787 0 0 0 .17-.492.626.626 0 0 0-.15-.422 1.1 1.1 0 0 0-.413-.281 3.976 3.976 0 0 0-.613-.205l-.745-.192c-.539-.138-.965-.348-1.278-.63-.311-.283-.467-.659-.467-1.128 0-.385.105-.723.313-1.013a2.07 2.07 0 0 1 .86-.674 2.984 2.984 0 0 1 1.23-.243c.465 0 .872.081 1.221.243.352.16.628.382.828.668.2.283.304.61.31.978h-1.14Zm4.909-2.106-2.11 7.836h-1.013l2.11-7.836h1.013Zm1.895 3.976V43.5h-1.157v-6.545H30.5v2.47h.058a1.42 1.42 0 0 1 .534-.655c.242-.162.551-.243.926-.243.341 0 .639.071.892.214.254.143.45.352.588.627.14.274.211.61.211 1.006V43.5h-1.157v-2.947c0-.33-.085-.587-.256-.77-.168-.185-.404-.278-.71-.278-.204 0-.387.045-.549.134a.94.94 0 0 0-.377.38c-.09.167-.134.368-.134.605Z"/>
  <path fill="#7179CE" d="M147.902 22.5c-.08.704-.464 1.268-1.152 1.692-.64.392-1.456.588-2.448.588-1.264 0-2.216-.368-2.856-1.104-.472-.544-.708-1.216-.708-2.016 0-.672.168-1.248.504-1.728l.996-.216c-.36.568-.54 1.18-.54 1.836 0 .712.232 1.272.696 1.68.456.408 1.092.612 1.908.612.688 0 1.256-.12 1.704-.36.448-.24.72-.568.816-.984h-1.2l.504-.972h1.812v.972h-.036Zm-4.404 4.404c-.392 0-.588-.2-.588-.6 0-.392.196-.588.588-.588.384 0 .576.196.576.588 0 .4-.192.6-.576.6Zm1.524 0c-.392 0-.588-.2-.588-.6 0-.392.196-.588.588-.588.384 0 .576.196.576.588 0 .4-.192.6-.576.6Zm2.286-4.404v-.972h.636c.832 0 1.248-.436 1.248-1.308v-4.908l1.044-.552v5.472c0 .712-.212 1.276-.636 1.692-.4.384-.924.576-1.572.576h-.72Zm4.125 0 .504-.972h2.136c.32 0 .544-.08.672-.24.136-.16.204-.436.204-.828 0-1.064-.492-1.864-1.476-2.4l.528-.888c1.256.736 1.912 1.752 1.968 3.048.016.464.12.8.312 1.008.2.2.516.3.948.3h.708v.972h-.792c-.664 0-1.184-.212-1.56-.636-.264.424-.708.636-1.332.636h-2.82Zm12.257-.972v.972h-6.468v-.972h2.076c-.392-.504-.588-1.124-.588-1.86 0-.816.28-1.464.84-1.944a2.44 2.44 0 0 1 1.584-.588c.848 0 1.508.34 1.98 1.02v.972c-.512-.688-1.132-1.032-1.86-1.032-.456 0-.824.148-1.104.444-.272.288-.408.676-.408 1.164 0 .552.164.996.492 1.332.336.328.78.492 1.332.492h2.124Zm9.276 0h.792v.972h-.912c-.824 0-1.416-.304-1.776-.912-.384.368-.86.552-1.428.552-.704 0-1.264-.264-1.68-.792-.344-.448-.516-.996-.516-1.644 0-.776.236-1.4.708-1.872.4-.408.888-.612 1.464-.612.44 0 .82.112 1.14.336v-.516l1.044-.552v3.84c0 .8.388 1.2 1.164 1.2Zm-2.208-2.856a1.414 1.414 0 0 0-1.092-.492c-.352 0-.64.144-.864.432-.224.28-.336.648-.336 1.104 0 .464.112.836.336 1.116.224.28.516.42.876.42.448 0 .816-.184 1.104-.552a3.25 3.25 0 0 1-.024-.336v-1.692Zm4.564-2.832c-.392 0-.588-.2-.588-.6 0-.392.196-.588.588-.588.384 0 .576.196.576.588 0 .4-.192.6-.576.6Zm1.896 5.688h.792v.972h-.912c-.664 0-1.188-.212-1.572-.636-.384.424-.908.636-1.572.636h-.912v-.972h.792c.784 0 1.176-.4 1.176-1.2v-2.484l1.032-.552v3.036c0 .8.392 1.2 1.176 1.2Zm2.035-2.28c0-.696.208-1.236.624-1.62.368-.328.848-.492 1.44-.492.76 0 1.344.28 1.752.84.352.472.528 1.088.528 1.848 0 .864-.224 1.54-.672 2.028-.392.432-.904.648-1.536.648-.72 0-1.268-.2-1.644-.6-.384.4-.9.6-1.548.6h-.912v-.972h.792c.784 0 1.176-.4 1.176-1.2v-1.08Zm1.032 1.164c0 .744.364 1.116 1.092 1.116.376 0 .668-.152.876-.456.216-.304.324-.728.324-1.272 0-.536-.112-.952-.336-1.248-.224-.304-.532-.456-.924-.456-.688 0-1.032.4-1.032 1.2v1.116Z"/>
  <path fill="#1B3DBC" d="M145.96 40.942h.315v.558h-.387c-.372 0-.681-.09-.927-.27-.048.996-.45 1.626-1.206 1.89a1.87 1.87 0 0 1-.612.099c-.348 0-.684-.084-1.008-.252v-.531c.306.168.618.252.936.252.252 0 .474-.057.666-.171.42-.252.63-.723.63-1.413v-3.141l.594-.315v.009l.009-.009v2.268c0 .684.33 1.026.99 1.026Zm2.874-4.464c-.246 0-.369-.126-.369-.378 0-.24.123-.36.369-.36.234 0 .351.12.351.36 0 .252-.117.378-.351.378Zm-2.736 5.022v-.558h1.53c-.33-.33-.495-.804-.495-1.422 0-.648.168-1.149.504-1.503.294-.318.684-.477 1.17-.477.498 0 .882.156 1.152.468.234.27.351.63.351 1.08v.873c-.006.486-.153.867-.441 1.143-.264.264-.624.396-1.08.396h-2.691Zm3.618-2.358c0-.702-.303-1.053-.909-1.053-.336 0-.6.126-.792.378-.186.246-.279.594-.279 1.044 0 .438.09.786.27 1.044a.868.868 0 0 0 .738.387c.648 0 .972-.336.972-1.008v-.792Zm4.429 2.025c-.252.144-.576.216-.972.216-.522 0-.93-.201-1.224-.603-.252-.342-.378-.774-.378-1.296 0-.63.168-1.122.504-1.476.294-.312.684-.468 1.17-.468.498 0 .882.156 1.152.468.234.27.351.63.351 1.08v1.98c0 .558-.117 1.017-.351 1.377-.234.366-.567.6-.999.702-.144.042-.3.063-.468.063-.348 0-.687-.084-1.017-.252v-.531c.312.168.621.252.927.252.246 0 .462-.054.648-.162.42-.21.639-.66.657-1.35Zm0-2.025c0-.702-.3-1.053-.9-1.053-.336 0-.603.123-.801.369-.192.246-.288.585-.288 1.017 0 .42.093.756.279 1.008a.898.898 0 0 0 .756.369c.474 0 .792-.132.954-.396v-1.314Zm2.135 2.358v-5.49l.603-.315V41.5h-.603Zm15.653-.558h.522v.558h-.585c-.552 0-.969-.189-1.251-.567-.282.378-.693.567-1.233.567h-.477c-.546 0-.954-.186-1.224-.558-.27.372-.678.558-1.224.558h-.477c-.354 0-.663-.087-.927-.261-.042.63-.294 1.125-.756 1.485-.408.324-.924.486-1.548.486-.762 0-1.353-.27-1.773-.81-.33-.414-.495-.909-.495-1.485 0-.516.132-.96.396-1.332l.585-.117a2.51 2.51 0 0 0-.432 1.404c0 .528.171.963.513 1.305.318.318.72.477 1.206.477.57 0 1.011-.168 1.323-.504.258-.276.387-.639.387-1.089V38.62l.603-.315v1.611c0 .684.333 1.026.999 1.026h.324c.666 0 .999-.342.999-1.026v-1.62l.594-.324v1.944c0 .684.333 1.026.999 1.026h.333c.66 0 .99-.342.99-1.026v-1.953l.603-.315v2.232c0 .708.342 1.062 1.026 1.062Zm.339.558v-.558h.315c.66 0 .99-.342.99-1.026v-1.953l.603-.315v2.286c0 .504-.147.897-.441 1.179-.27.258-.63.387-1.08.387h-.387Zm.297 1.683c-.246 0-.369-.126-.369-.378 0-.24.123-.36.369-.36.234 0 .351.12.351.36 0 .252-.117.378-.351.378Zm1.026 0c-.246 0-.369-.126-.369-.378 0-.24.123-.36.369-.36.234 0 .351.12.351.36 0 .252-.117.378-.351.378Zm6.156-2.241v.558h-.954a1.615 1.615 0 0 1-.387 1.044 1.719 1.719 0 0 1-.963.603c-.144.042-.3.063-.468.063-.348 0-.687-.084-1.017-.252v-.531c.312.168.621.252.927.252.246 0 .462-.054.648-.162.186-.096.342-.243.468-.441.126-.192.189-.384.189-.576l-.765-.027c-.666-.03-1.164-.24-1.494-.63-.27-.33-.405-.771-.405-1.323 0-.648.168-1.149.504-1.503.3-.318.702-.477 1.206-.477.522 0 .921.156 1.197.468.24.27.36.63.36 1.08v1.854h.954Zm-1.557-1.791c0-.708-.318-1.062-.954-1.062-.354 0-.63.126-.828.378-.192.246-.288.594-.288 1.044 0 .894.441 1.362 1.323 1.404.264.018.513.027.747.027v-1.791Zm4.109-2.673c-.246 0-.369-.126-.369-.378 0-.24.123-.36.369-.36.234 0 .351.12.351.36 0 .252-.117.378-.351.378Zm-2.736 5.022v-.558h1.53c-.33-.33-.495-.804-.495-1.422 0-.648.168-1.149.504-1.503.294-.318.684-.477 1.17-.477.498 0 .882.156 1.152.468.234.27.351.63.351 1.08v.873c-.006.486-.153.867-.441 1.143-.264.264-.624.396-1.08.396h-2.691Zm3.618-2.358c0-.702-.303-1.053-.909-1.053-.336 0-.6.126-.792.378-.186.246-.279.594-.279 1.044 0 .438.09.786.27 1.044a.868.868 0 0 0 .738.387c.648 0 .972-.336.972-1.008v-.792Z"/>
  <circle cx="217" cy="29.5" r="20.5" fill="#D9D9D9"/>
</svg>
