<svg xmlns="http://www.w3.org/2000/svg" width="180" height="43" fill="none" viewBox="0 0 180 43">
  <rect width="179.271" height="42.267" x=".364" y=".364" fill="#fff" rx="5.466"/>
  <rect width="179.271" height="42.267" x=".364" y=".364" stroke="#CEDFFF" stroke-width=".729" rx="5.466"/>
  <path fill="#FED26C" d="M12.406 9.447a.364.364 0 0 1 .694 0l.88 2.71c.049.15.189.252.347.252h2.85c.352 0 .499.451.213.659l-2.305 1.675a.364.364 0 0 0-.132.407l.88 2.71a.364.364 0 0 1-.56.408l-2.306-1.675a.364.364 0 0 0-.428 0l-2.306 1.675a.364.364 0 0 1-.56-.408l.88-2.71a.364.364 0 0 0-.132-.407l-2.305-1.675a.364.364 0 0 1 .214-.66h2.85a.364.364 0 0 0 .346-.251l.88-2.71Zm14.576 0a.364.364 0 0 1 .692 0l.881 2.71c.049.15.189.252.347.252h2.85c.352 0 .499.451.213.659l-2.305 1.675a.364.364 0 0 0-.132.407l.88 2.71a.364.364 0 0 1-.56.408l-2.306-1.675a.364.364 0 0 0-.428 0l-2.306 1.675a.364.364 0 0 1-.56-.408l.88-2.71a.364.364 0 0 0-.132-.407l-2.305-1.675a.364.364 0 0 1 .214-.66h2.85a.364.364 0 0 0 .346-.251l.88-2.71Zm14.574 0a.364.364 0 0 1 .693 0l.88 2.71c.05.15.19.252.348.252h2.849c.353 0 .5.451.214.659l-2.305 1.675a.364.364 0 0 0-.133.407l.881 2.71a.364.364 0 0 1-.56.408l-2.306-1.675a.364.364 0 0 0-.428 0l-2.306 1.675a.364.364 0 0 1-.56-.408l.88-2.71a.364.364 0 0 0-.132-.407l-2.305-1.675a.364.364 0 0 1 .214-.66h2.85a.364.364 0 0 0 .346-.251l.88-2.71Zm14.575 0a.364.364 0 0 1 .693 0l.88 2.71c.05.15.19.252.347.252h2.85c.353 0 .5.451.214.659l-2.305 1.675a.364.364 0 0 0-.133.407l.881 2.71a.364.364 0 0 1-.56.408l-2.306-1.675a.364.364 0 0 0-.428 0l-2.306 1.675a.364.364 0 0 1-.56-.408l.88-2.71a.364.364 0 0 0-.132-.407l-2.306-1.675a.364.364 0 0 1 .215-.66h2.85a.364.364 0 0 0 .346-.251l.88-2.71Zm14.575 0a.364.364 0 0 1 .693 0l.88 2.71c.05.15.19.252.347.252h2.85c.353 0 .5.451.214.659l-2.305 1.675a.364.364 0 0 0-.133.407l.88 2.71a.364.364 0 0 1-.56.408l-2.305-1.675a.364.364 0 0 0-.429 0l-2.305 1.675a.364.364 0 0 1-.56-.408l.88-2.71a.364.364 0 0 0-.132-.407l-2.306-1.675a.364.364 0 0 1 .214-.66h2.85a.364.364 0 0 0 .347-.251l.88-2.71Z"/>
  <path fill="#1B3DBC" d="M7.26 30.73v-.687l2.025-3.198h.573v.979h-.35l-1.362 2.159v.037h2.825v.71h-3.71Zm2.276.885v-1.094l.01-.308v-3.368h.815v4.77h-.825Zm3.942.091c-.383 0-.712-.097-.987-.291-.274-.196-.484-.477-.631-.845-.146-.37-.22-.815-.22-1.335.002-.52.076-.963.222-1.328.147-.366.358-.646.631-.838.275-.193.603-.289.985-.289s.71.096.986.289c.274.192.485.472.63.838.148.367.222.81.222 1.328 0 .522-.074.967-.221 1.337-.146.368-.357.649-.632.843-.273.194-.601.291-.985.291Zm0-.729c.298 0 .534-.147.706-.44.174-.295.26-.73.26-1.302 0-.379-.039-.697-.118-.955-.08-.258-.19-.452-.335-.582a.734.734 0 0 0-.513-.198c-.296 0-.53.147-.703.442-.172.294-.26.725-.26 1.293-.003.38.036.7.113.96.08.259.191.454.336.586.144.13.316.196.514.196Zm4.149 1.235v-5.963h.382v5.963h-.382Zm1.102-4.056a.636.636 0 0 0-.275-.475c-.16-.113-.368-.17-.624-.17a1.2 1.2 0 0 0-.464.082.687.687 0 0 0-.296.221.538.538 0 0 0-.037.578c.047.073.11.135.189.186.079.05.167.092.263.126s.193.063.291.086l.447.112c.18.042.354.098.52.17.167.071.317.161.45.27.133.109.238.24.316.394.078.153.116.334.116.54 0 .28-.071.526-.214.738a1.41 1.41 0 0 1-.62.496c-.268.118-.593.177-.975.177-.371 0-.694-.057-.967-.172a1.44 1.44 0 0 1-.638-.503 1.49 1.49 0 0 1-.247-.806h.85a.723.723 0 0 0 .154.415c.09.11.207.192.352.247.145.054.308.081.489.081.188 0 .352-.028.493-.084a.8.8 0 0 0 .336-.237.574.574 0 0 0 .123-.359.456.456 0 0 0-.11-.307.803.803 0 0 0-.3-.205 2.885 2.885 0 0 0-.447-.15l-.543-.14c-.392-.1-.703-.253-.931-.458-.227-.207-.34-.48-.34-.822 0-.281.076-.527.228-.739.154-.21.363-.375.627-.49.264-.119.562-.178.896-.178.339 0 .635.06.89.177.256.116.457.279.603.487.146.206.221.444.226.713h-.831Zm3.576-1.534-1.537 5.71h-.738l1.537-5.71h.738Zm1.382 2.897v2.096h-.843v-4.77h.824v1.8h.042c.084-.201.213-.36.389-.477.177-.118.402-.177.675-.177.249 0 .465.052.65.156.185.104.328.256.429.457.102.2.153.445.153.733v2.278h-.843v-2.147c0-.24-.062-.428-.186-.561-.123-.136-.295-.203-.517-.203a.815.815 0 0 0-.4.098.685.685 0 0 0-.275.277.917.917 0 0 0-.098.44Z"/>
  <path fill="#7179CE" d="M107.273 15.672h.402v.708h-.489c-.49 0-.872-.151-1.146-.454-.274.303-.656.454-1.146.454h-3.122c-.472 0-.842-.157-1.11-.472-.233-.274-.35-.632-.35-1.075v-1.059l.752-.402v1.39c0 .607.283.91.848.91h2.904c.565 0 .848-.303.848-.91v-1.775l.752-.402v2.212c0 .583.286.875.857.875Zm-4.224 1.583c.28 0 .42.143.42.428 0 .292-.14.438-.42.438-.286 0-.428-.146-.428-.438 0-.285.142-.428.428-.428Zm7.148-1.583h.577v.708h-.665c-.484 0-.865-.154-1.145-.463-.28.309-.662.463-1.146.463h-.664v-.708h.577c.571 0 .857-.292.857-.875v-1.81l.752-.402v2.212c0 .583.285.875.857.875Zm-2.09 1.583c.28 0 .419.146.419.437 0 .286-.139.429-.419.429-.286 0-.429-.143-.429-.429 0-.291.143-.437.429-.437Zm1.11 0c.28 0 .42.146.42.437 0 .286-.14.429-.42.429-.285 0-.428-.143-.428-.429 0-.291.143-.437.428-.437Zm4.071-1.583h.577v.708h-.664c-.484 0-.866-.154-1.146-.463-.28.309-.661.463-1.145.463h-.665v-.708h.577c.572 0 .857-.292.857-.875v-1.81l.752-.402v2.212c0 .583.286.875.857.875Zm-1.285 1.583c.28 0 .42.143.42.428 0 .292-.14.438-.42.438-.286 0-.429-.146-.429-.438 0-.285.143-.428.429-.428Zm1.333-.875v-.708h1.199c1.183 0 2.119-.39 2.807-1.172-.484-.892-1.073-1.338-1.767-1.338-.472 0-.959.25-1.46.752v-.7c.489-.495 1.008-.743 1.556-.743.449 0 .884.164 1.303.49.42.32.79.781 1.111 1.382v.385c-.857 1.101-2.043 1.652-3.559 1.652h-1.19Zm9.54 0c-.507 0-.898-.163-1.172-.49-.233-.28-.35-.635-.35-1.066v-3.682l.753-.402v4.057c0 .583.285.875.857.875h.577v.708h-.665Zm1.798-4.853c-.286 0-.429-.146-.429-.437 0-.286.143-.429.429-.429.28 0 .42.143.42.429 0 .291-.14.437-.42.437Zm1.382 4.145h.577v.708h-.665c-.484 0-.866-.154-1.146-.463-.279.309-.661.463-1.145.463h-.665v-.708h.577c.572 0 .857-.292.857-.875v-1.81l.753-.402v2.212c0 .583.285.875.857.875Zm3.091 0h.577v.708h-.664c-.484 0-.866-.154-1.146-.463-.28.309-.662.463-1.146.463h-.664v-.708h.577c.571 0 .857-.292.857-.875v-1.81l.752-.402v2.212c0 .583.286.875.857.875Zm-2.09 1.583c.28 0 .42.146.42.437 0 .286-.14.429-.42.429-.286 0-.429-.143-.429-.429 0-.291.143-.437.429-.437Zm1.111 0c.279 0 .419.146.419.437 0 .286-.14.429-.419.429-.286 0-.429-.143-.429-.429 0-.291.143-.437.429-.437Zm2.461-3.244c0-.508.152-.901.455-1.181.268-.24.618-.359 1.05-.359.553 0 .979.204 1.276.613.257.344.385.792.385 1.346 0 .63-.163 1.123-.49 1.478-.285.315-.658.472-1.119.472-.525 0-.924-.145-1.198-.437-.28.292-.656.437-1.128.437h-.665v-.708h.577c.572 0 .857-.292.857-.875v-.787Zm.752.848c0 .542.266.813.796.813a.73.73 0 0 0 .639-.332c.157-.222.236-.53.236-.927 0-.39-.082-.694-.245-.91a.79.79 0 0 0-.673-.332c-.502 0-.753.292-.753.875v.813Z"/>
  <path fill="#1B3DBC" d="M99.585 30.615v-4.151h2.44v.413h-1.955v1.377h1.647v.413h-1.647v1.948h-.485Zm3.75-4.23v4.23h-.44v-3.994l.44-.236Zm3.421 1.253v2.977h-.341l-.039-.34-.02.006a1.3 1.3 0 0 1-.971.413c-.319 0-.57-.112-.754-.335-.184-.227-.275-.54-.275-.937v-1.784h.439v1.705c0 .643.241.964.722.964a.986.986 0 0 0 .445-.111.95.95 0 0 0 .361-.29v-2.268h.433Zm1.682.36-.006 1.863c0 .32.129.479.387.479a.9.9 0 0 0 .426-.112l.157.243a1.164 1.164 0 0 1-.675.223c-.232 0-.411-.072-.538-.216-.127-.145-.19-.346-.19-.604v-1.876h-.453v-.36h.459v-.65l.433-.223v.873h.912v.36h-.912Zm2.408 0-.006 1.863c0 .32.129.479.387.479a.9.9 0 0 0 .426-.112l.158.243a1.17 1.17 0 0 1-.676.223c-.232 0-.411-.072-.538-.216-.127-.145-.19-.346-.19-.604v-1.876h-.453v-.36h.46v-.65l.432-.223v.873h.912v.36h-.912Zm4.109 1.28h-2.125c.017.318.127.574.328.767.205.192.47.288.793.288.272 0 .536-.08.794-.242l.151.262a1.634 1.634 0 0 1-1.043.34c-.472 0-.848-.154-1.128-.465-.258-.28-.387-.643-.387-1.088 0-.464.138-.85.413-1.161.249-.28.558-.42.925-.42.442 0 .778.18 1.01.538.179.28.269.625.269 1.036v.144Zm-2.132-.355h1.679c-.013-.32-.091-.568-.236-.748a.698.698 0 0 0-.583-.268.756.756 0 0 0-.597.282c-.158.188-.245.432-.263.734Zm4.9-1.03-.36.25a.714.714 0 0 0-.479-.197c-.249 0-.47.129-.662.387v2.282h-.44v-2.977h.374l.039.314h.013c.258-.262.523-.393.794-.393.319 0 .56.111.721.334Zm3.141 2.407c0 .796-.293 1.295-.879 1.496a1.36 1.36 0 0 1-.446.072 1.57 1.57 0 0 1-.734-.184v-.387a1.4 1.4 0 0 0 .682.184.934.934 0 0 0 .485-.125c.306-.183.459-.527.459-1.03v-2.288l.433-.23V30.3Zm4.057-.091v.406h-.695a1.183 1.183 0 0 1-.282.761c-.18.223-.414.37-.702.44-.105.03-.219.045-.341.045-.254 0-.501-.06-.741-.183v-.387c.227.122.452.183.675.183a.919.919 0 0 0 .472-.118.886.886 0 0 0 .342-.321.766.766 0 0 0 .137-.42l-.557-.02c-.486-.021-.849-.174-1.089-.459-.197-.24-.295-.561-.295-.964 0-.472.122-.837.367-1.095.219-.232.512-.348.879-.348.38 0 .671.114.872.341.175.197.263.46.263.788v1.35h.695Zm-1.135-1.306c0-.515-.232-.773-.695-.773-.258 0-.459.091-.603.275-.14.18-.21.433-.21.76 0 .652.321.993.964 1.024.192.013.374.02.544.02v-1.306Zm7.035 1.306v.406h-.282c-.368 0-.652-.118-.853-.354-.157.236-.411.354-.761.354h-4.138v-.406h1.108v-3.595l.407-.23v2.756c.511-.94 1.189-1.41 2.033-1.41.49 0 .879.168 1.168.504.244.289.367.645.367 1.07v.17c0 .49.242.735.728.735h.223Zm-1.391-.905c0-.368-.116-.663-.347-.886a1.018 1.018 0 0 0-.741-.288c-.512 0-.967.247-1.365.74a3.656 3.656 0 0 0-.669 1.339h2.571c.21 0 .355-.049.433-.145.079-.1.118-.282.118-.544v-.216Zm2.213-.446c0-.372.112-.66.335-.866.192-.175.446-.263.761-.263.406 0 .719.15.937.446.188.254.282.586.282.997 0 .468-.12.833-.36 1.096-.21.231-.483.347-.82.347-.411 0-.717-.13-.918-.393-.197.262-.492.393-.886.393h-.282v-.406h.23c.481 0 .721-.25.721-.748v-.603Zm.44.63c0 .48.236.72.708.72a.626.626 0 0 0 .538-.275c.131-.183.197-.44.197-.767 0-.324-.07-.577-.21-.761a.675.675 0 0 0-.577-.276c-.438 0-.656.256-.656.768v.59Z"/>
  <circle cx="158.138" cy="21.498" r="14.939" fill="#D9D9D9"/>
</svg>
